<svg xmlns="http://www.w3.org/2000/svg" width="640" height="512" viewBox="0 0 640 512" version="1.1"><path d="M 112 33.594 C 89.588 39.600, 71.333 58.014, 65.539 80.460 L 64 86.420 64 219.210 L 64 352 96 352 L 128 352 128 224 L 128 96 320 96 L 512 96 512 224 L 512 352 544.014 352 L 576.028 352 575.764 217.250 L 575.500 82.500 573.282 75.985 C 567.020 57.586, 552.257 42.521, 533.242 35.123 L 526.500 32.500 322 32.310 L 117.500 32.120 112 33.594 M 253.500 170.064 L 249.500 172.048 223.147 198.274 L 196.793 224.500 194.406 229.500 L 192.020 234.500 192.010 240.054 L 192 245.607 194.469 250.554 L 196.937 255.500 223.219 281.694 L 249.500 307.889 254 309.922 L 258.500 311.956 264 311.968 L 269.500 311.980 274.541 309.633 C 282.144 306.093, 288.174 297.730, 287.885 291.128 L 287.770 288.500 287.064 292 C 285.568 299.415, 279.725 306.554, 272.782 309.449 C 268.035 311.429, 259.991 311.436, 255.218 309.464 L 251.500 307.928 224.147 280.714 L 196.794 253.500 194.919 249.500 L 193.044 245.500 193.022 240.218 C 193.010 237.313, 193.691 233.263, 194.536 231.218 L 196.072 227.500 223.286 200.184 C 238.254 185.160, 251.850 172.142, 253.500 171.255 C 255.150 170.368, 258.075 169.325, 260 168.936 L 263.500 168.230 260.500 168.155 C 258.850 168.114, 255.700 168.973, 253.500 170.064 M 268 168.936 C 275.466 170.443, 281.945 175.575, 285.121 182.500 L 286.956 186.500 286.956 192 L 286.956 197.500 284.961 201.897 L 282.966 206.294 266.296 223.147 L 249.626 240 266.177 256.750 C 282.424 273.193, 286.863 279.115, 287.136 284.710 L 287.272 287.500 287.708 285.233 C 287.948 283.986, 287.597 281.286, 286.929 279.233 L 285.714 275.500 268.156 257.739 L 250.597 239.977 267.701 222.739 L 284.804 205.500 286.402 201.628 C 288.281 197.074, 288.473 189.309, 286.839 183.858 C 284.469 175.946, 274.476 167.839, 267.434 168.115 L 264.500 168.230 268 168.936 M 365.168 170.603 C 356.792 174.778, 351.982 182.685, 352.022 192.218 L 352.044 197.500 354.065 202 L 356.087 206.500 372.769 223.237 L 389.452 239.974 372.362 257.237 L 355.273 274.500 353.514 279.216 L 351.755 283.931 352.186 289.888 L 352.616 295.845 355.585 300.646 L 358.553 305.447 363.382 308.433 L 368.212 311.419 374.426 311.814 L 380.641 312.210 385.640 310.059 L 390.639 307.909 417.730 280.704 L 444.821 253.500 446.410 249.628 C 447.285 247.498, 447.948 244.573, 447.885 243.128 L 447.770 240.500 447.064 244 C 446.675 245.925, 445.632 248.850, 444.745 250.500 C 443.858 252.150, 430.840 265.746, 415.816 280.714 L 388.500 307.928 384.782 309.464 C 376.736 312.788, 366.587 310.827, 360.128 304.699 C 353.439 298.353, 351.077 287.587, 354.537 279.218 L 356.075 275.500 373.777 257.750 L 391.479 240 373.777 222.250 L 356.075 204.500 354.537 200.782 C 353.692 198.737, 353.010 194.687, 353.022 191.782 C 353.075 178.941, 363.240 168.968, 376.218 169.022 L 381.500 169.044 385.981 171.076 L 390.461 173.109 416.630 199.304 L 442.800 225.500 444.900 229.710 C 446.055 232.026, 447.061 235.176, 447.136 236.710 L 447.272 239.500 447.708 237.233 C 447.948 235.986, 447.603 233.286, 446.942 231.233 L 445.740 227.500 418.620 200.134 L 391.500 172.768 386.500 170.394 L 381.500 168.020 375.946 168.010 L 370.393 168 365.168 170.603 M 9.695 386.096 L 5.890 388.104 2.945 392.748 L -0 397.392 0 405.536 L 0 413.680 2.023 421.590 C 9.288 450, 30 470.712, 58.410 477.977 L 66.320 480 320 480 L 573.680 480 581.590 477.977 C 609.367 470.873, 630.785 449.886, 637.486 423.206 C 638.412 419.518, 639.582 415.719, 640.085 414.764 C 641.230 412.591, 641.303 395.695, 640.165 396.398 C 639.705 396.682, 638.584 395.351, 637.673 393.440 L 636.016 389.966 631.312 386.983 L 626.608 384 320.054 384.044 L 13.500 384.088 9.695 386.096 M 0.360 406 C 0.360 411.225, 0.529 413.363, 0.735 410.750 C 0.941 408.137, 0.941 403.863, 0.735 401.250 C 0.529 398.637, 0.360 400.775, 0.360 406" stroke="none" fill="#f46c04" fill-rule="evenodd"/><path d="M 260 168.989 C 258.075 169.349, 255.150 170.368, 253.500 171.255 C 251.850 172.142, 238.254 185.160, 223.286 200.184 L 196.072 227.500 194.536 231.218 C 193.691 233.263, 193.010 237.313, 193.022 240.218 L 193.044 245.500 194.919 249.500 L 196.794 253.500 224.147 280.714 L 251.500 307.928 255.218 309.464 C 259.991 311.436, 268.035 311.429, 272.782 309.449 C 277.507 307.479, 282.605 302.606, 285.188 297.594 L 287.200 293.688 287.200 288 L 287.200 282.312 284.963 277.906 L 282.727 273.500 266.177 256.750 L 249.626 240 266.296 223.147 L 282.966 206.294 284.961 201.897 L 286.956 197.500 286.956 192 L 286.956 186.500 285.121 182.500 C 280.686 172.831, 270.055 167.114, 260 168.989 M 366.500 170.900 C 361.557 173.193, 356.601 178.302, 354.551 183.218 C 352.570 187.966, 352.564 196.010, 354.537 200.782 L 356.075 204.500 373.777 222.250 L 391.479 240 373.777 257.750 L 356.075 275.500 354.537 279.218 C 351.077 287.587, 353.439 298.353, 360.128 304.699 C 366.587 310.827, 376.736 312.788, 384.782 309.464 L 388.500 307.928 415.818 280.714 C 430.844 265.746, 444.051 251.742, 445.168 249.594 L 447.200 245.688 447.200 240 L 447.200 234.312 445 229.906 L 442.800 225.500 416.630 199.304 L 390.461 173.109 385.981 171.076 L 381.500 169.044 376 169.044 L 370.500 169.044 366.500 170.900" stroke="none" fill="#fcc49c" fill-rule="evenodd"/></svg>