<svg xmlns="http://www.w3.org/2000/svg" width="512" height="512" viewBox="0 0 512 512" version="1.1"><path d="M 230.437 19.250 L 227.500 22.500 230.750 19.563 C 233.779 16.825, 234.460 16, 233.687 16 C 233.515 16, 232.052 17.462, 230.437 19.250 M 223.437 26.250 L 220.500 29.500 223.750 26.563 C 226.779 23.825, 227.460 23, 226.687 23 C 226.515 23, 225.052 24.462, 223.437 26.250 M 337 24.313 C 337 24.485, 338.462 25.948, 340.250 27.563 L 343.500 30.500 340.563 27.250 C 337.825 24.221, 337 23.540, 337 24.313 M 349.705 42.472 C 351.182 45.482, 352.557 47.776, 352.762 47.571 C 353.211 47.122, 348.167 37, 347.494 37 C 347.234 37, 348.229 39.462, 349.705 42.472 M 270.500 53.383 L 265.500 55.747 262.809 58.624 C 261.329 60.206, 259.201 63.525, 258.081 66 L 256.044 70.500 256.132 73.500 L 256.219 76.500 257.044 72.326 C 258.666 64.126, 264.046 57.247, 271.478 53.871 L 275.500 52.044 281.554 52.022 L 287.607 52 292.890 54.633 L 298.173 57.265 301.555 61.883 L 304.938 66.500 305.862 70.500 L 306.786 74.500 306.893 72.218 C 307.055 68.767, 304.279 62.901, 300.699 59.128 L 297.500 55.755 292.500 53.387 L 287.500 51.020 281.500 51.020 L 275.500 51.020 270.500 53.383 M 358.310 76.500 L 358.320 82.500 358.725 79.232 C 358.947 77.435, 358.943 74.735, 358.715 73.232 L 358.300 70.500 358.310 76.500 M 256.110 80.282 C 255.973 83.742, 258.106 88.962, 261.444 93.338 L 263.991 96.677 269.246 99.582 L 274.500 102.486 281.500 102.493 L 288.500 102.500 293 100.157 C 299.084 96.990, 301.754 94.371, 304.599 88.783 L 307 84.066 306.933 81.783 L 306.866 79.500 305.521 83.810 C 304.781 86.181, 303.142 89.629, 301.879 91.472 L 299.582 94.824 295.550 97.438 C 293.333 98.876, 289.714 100.539, 287.509 101.134 L 283.500 102.216 278.804 101.661 L 274.108 101.107 270.804 99.442 C 263.526 95.773, 258.566 89.368, 257.044 81.674 L 256.219 77.500 256.110 80.282 M 155.532 129.950 L 106.565 178.943 102.032 179.510 C 99.540 179.821, 94.125 180.999, 90 182.127 L 82.500 184.179 74.945 188.099 L 67.390 192.020 61.860 196.760 C 56.605 201.265, 50.590 207.684, 48.474 211.047 L 47.500 212.594 49.308 210.547 C 63.055 194.979, 75.337 186.902, 92.058 182.432 L 98.500 180.710 109 180.605 C 114.775 180.547, 122.041 180.725, 125.146 181 L 130.792 181.500 130.412 182.128 C 130.203 182.474, 131.421 183.034, 133.119 183.374 L 136.205 183.991 137.257 183.341 L 138.309 182.691 137.490 184.015 L 136.672 185.340 138.388 184.681 L 140.104 184.023 139.493 185.011 L 138.882 186 140.691 186.158 C 141.686 186.244, 143.058 186.295, 143.739 186.270 L 144.978 186.226 144.325 187.283 L 143.672 188.340 145.388 187.681 L 147.104 187.023 146.633 187.786 L 146.161 188.548 150.201 190.873 L 154.240 193.198 153.533 191.849 C 153.145 191.107, 153.653 191.432, 154.663 192.571 C 155.673 193.710, 160.160 198.075, 164.634 202.271 C 169.107 206.466, 172.530 210.136, 172.241 210.426 C 171.951 210.716, 172.453 211.237, 173.357 211.583 L 175 212.214 175 213.607 C 175 214.373, 175.360 215, 175.799 215 C 176.239 215, 177.168 216.575, 177.864 218.500 C 178.560 220.425, 179.475 222, 179.898 222 C 180.321 222, 180.730 222.563, 180.808 223.250 C 180.886 223.938, 182.445 228.868, 184.272 234.207 L 187.595 243.913 232.543 198.957 L 277.492 154 283.496 153.857 L 289.500 153.714 278.500 152.913 L 267.500 152.112 261.074 150.106 C 257.539 149.003, 254.277 148.329, 253.824 148.609 L 253 149.118 253 147.952 L 253 146.786 251.448 147.382 L 249.896 147.977 250.612 146.819 L 251.328 145.660 249.612 146.319 L 247.896 146.977 248.442 146.093 L 248.989 145.210 247.404 144.602 L 245.820 143.994 244.755 144.651 L 243.691 145.309 244.360 144.227 L 245.029 143.144 242.765 142.374 C 241.519 141.950, 240.129 141.704, 239.676 141.827 L 238.851 142.050 239.361 141.225 L 239.871 140.400 237.831 139.126 L 235.791 137.852 236.546 139.176 C 236.962 139.904, 235.772 138.895, 233.901 136.934 C 232.030 134.973, 231.132 134.185, 231.905 135.184 C 232.678 136.183, 233.062 137, 232.759 137 C 232.455 137, 229.176 133.175, 225.471 128.500 C 221.766 123.825, 218.318 120, 217.809 120 L 216.882 120 217.462 119.061 L 218.042 118.123 216.271 117.092 C 215.297 116.525, 214.847 116.047, 215.270 116.030 L 216.041 116 213.886 111.750 C 212.701 109.412, 211.303 107.225, 210.780 106.888 C 210.257 106.552, 209.914 105.977, 210.017 105.611 C 210.120 105.244, 209.307 101.470, 208.210 97.222 C 207.113 92.975, 205.830 87.578, 205.358 85.229 L 204.500 80.957 155.532 129.950 M 357 87.879 C 357 89.553, 355.898 94.395, 354.550 98.639 L 352.100 106.353 352.705 107.331 L 353.309 108.309 351.985 107.490 L 350.660 106.672 351.319 108.388 L 351.977 110.104 351.093 109.558 L 350.210 109.011 349.602 110.596 L 348.994 112.180 349.651 113.245 L 350.309 114.309 349.227 113.640 L 348.144 112.971 347.374 115.235 C 346.950 116.481, 346.704 117.871, 346.827 118.324 L 347.050 119.149 346.025 118.515 L 345 117.882 344.882 119.191 C 344.816 119.911, 344.828 120.871, 344.906 121.324 L 345.050 122.149 344.130 121.580 L 343.210 121.011 342.441 122.756 C 342.019 123.715, 341.634 124.800, 341.586 125.167 C 341.539 125.533, 341.090 126.208, 340.590 126.667 L 339.679 127.500 340.424 126 C 340.833 125.175, 339.893 125.972, 338.334 127.770 C 336.775 129.569, 334.150 132.189, 332.500 133.593 C 330.850 134.996, 330.175 135.815, 331 135.412 L 332.500 134.679 331.667 135.590 C 331.208 136.090, 330.533 136.539, 330.167 136.586 C 329.800 136.634, 328.715 137.019, 327.756 137.441 L 326.011 138.210 326.660 139.259 L 327.309 140.309 326.342 139.711 L 325.375 139.114 322.680 140.882 L 319.984 142.651 320.711 143.378 L 321.439 144.106 319.728 143.449 L 318.017 142.792 317.404 144.391 L 316.790 145.989 316.004 145.502 C 315.571 145.235, 313.033 145.982, 310.364 147.163 C 304.550 149.735, 296.628 151.927, 292.500 152.106 L 289.500 152.237 292.395 152.868 L 295.290 153.500 348.089 195 L 400.888 236.500 400.944 247.719 L 401 258.939 395.750 262.312 C 385.754 268.736, 379.437 277.387, 376.495 288.680 L 375 294.420 375 340.787 L 375 387.154 377.923 390.077 L 380.846 393 383.433 393 L 386.020 393 404.928 383.536 L 423.836 374.072 425.418 371.813 L 427 369.555 427 338.777 L 427 308 443.500 308 L 460 308 460 337.532 L 460 367.064 461.420 370.463 L 462.840 373.862 481.965 383.431 L 501.091 393 502.998 393 C 505.999 393, 509.674 390.978, 510.926 388.637 L 512.073 386.496 511.786 336.998 L 511.500 287.500 508.257 280.653 L 505.014 273.806 499.178 268.095 L 493.342 262.384 490.194 261.081 L 487.047 259.777 486.748 243.138 L 486.448 226.500 486.224 243.250 L 486 260 443.841 260 L 401.682 260 402.426 238.750 C 403.326 213.043, 403.194 215.002, 403.985 215.491 C 404.704 215.935, 407.542 208.991, 407.178 207.676 L 406.950 206.851 407.903 207.440 L 408.856 208.029 409.452 206.152 C 410.193 203.816, 417.538 196, 418.991 196 C 419.581 196, 420.321 195.328, 420.636 194.506 L 421.210 193.011 422.105 193.565 L 423 194.118 423 193 L 423 191.882 424 192.500 L 425 193.118 425 192 L 425 190.882 426 191.500 L 427 192.118 427 191.059 C 427 190.477, 427.337 190.085, 427.750 190.189 C 428.163 190.293, 431.795 189.797, 435.823 189.086 L 443.146 187.795 447.823 188.437 L 452.500 189.079 450.200 187.789 L 447.899 186.500 403.391 136 C 378.912 108.225, 358.460 85.350, 357.942 85.167 L 357 84.833 357 87.879 M 473.109 200.515 C 475.601 203.273, 478.836 207.570, 480.298 210.064 L 482.955 214.600 484.478 220.550 L 486.001 226.500 485.479 222 L 484.956 217.500 482.030 211.500 L 479.104 205.500 473.841 200.500 L 468.578 195.500 473.109 200.515 M 163 199.313 C 163 199.485, 164.463 200.948, 166.250 202.563 L 169.500 205.500 166.563 202.250 C 163.825 199.221, 163 198.540, 163 199.313 M 100.500 232.358 L 95.500 234.697 92.296 237.991 C 90.534 239.803, 88.284 242.908, 87.296 244.892 L 85.500 248.500 85.500 256 L 85.500 263.500 87.296 267.108 C 88.284 269.092, 90.534 272.197, 92.296 274.009 L 95.500 277.303 100.500 279.642 L 105.500 281.980 111 281.980 L 116.500 281.980 121.500 279.634 L 126.500 277.287 129.351 274.407 C 130.918 272.822, 133.158 269.720, 134.327 267.513 L 136.454 263.500 136.454 256 L 136.454 248.500 134.327 244.487 C 133.158 242.280, 130.918 239.178, 129.351 237.593 L 126.500 234.713 121.500 232.366 L 116.500 230.020 111 230.020 L 105.500 230.020 100.500 232.358 M 100.500 233.383 L 95.500 235.747 92.809 238.624 C 91.329 240.206, 89.201 243.525, 88.081 246 L 86.044 250.500 86.044 256 L 86.044 261.500 88.081 266 C 89.201 268.475, 91.329 271.794, 92.809 273.376 L 95.500 276.253 100.500 278.617 L 105.500 280.980 111 280.980 L 116.500 280.980 121.541 278.633 L 126.582 276.286 129.327 273.023 C 130.837 271.228, 132.769 268.414, 133.620 266.768 L 135.168 263.775 135.694 258.637 L 136.220 253.500 135.083 249.292 L 133.946 245.084 130.716 240.792 L 127.486 236.500 122.064 233.750 L 116.641 231 111.071 231.010 L 105.500 231.020 100.500 233.383 M 59 377.933 L 59 443 33.250 443.243 C 19.087 443.376, 81.400 443.714, 171.722 443.993 L 335.945 444.500 338.222 446.776 L 340.500 449.052 340.797 476.206 L 341.094 503.360 339.876 506.300 L 338.658 509.240 335.579 510.581 L 332.500 511.922 334.576 511.961 L 336.651 512 339.076 509.421 L 341.500 506.842 341.815 480.171 L 342.130 453.500 341.058 449.861 L 339.986 446.221 336.592 444.611 L 333.198 443 248.099 443 L 163 443 163 378.001 L 163 313.002 157.250 317.431 C 154.088 319.867, 148.350 323.426, 144.500 325.340 L 137.500 328.819 129 330.858 L 120.500 332.897 109 332.553 C 102.675 332.363, 96.825 332.006, 96 331.760 C 95.175 331.514, 93.150 330.986, 91.500 330.587 C 82.126 328.319, 71.677 323.024, 63.250 316.272 L 59 312.866 59 377.933 M 2.174 446.314 L 0 448.629 0.090 451.064 L 0.180 453.500 1.114 450.270 L 2.047 447.039 4.774 445.560 L 7.500 444.080 5.924 444.040 L 4.349 444 2.174 446.314 M 0.116 504.795 L 0 507.091 2.455 509.545 L 4.909 512 7.205 511.864 L 9.500 511.728 7.374 511.311 C 4.837 510.813, 1.390 507.287, 0.716 504.500 L 0.232 502.500 0.116 504.795" stroke="none" fill="#f46c04" fill-rule="evenodd"/><path d="M 267.113 1.479 C 243.135 6.928, 225.508 20.028, 214.292 40.733 L 210.085 48.500 207.820 56.500 L 205.555 64.500 205.549 76.500 L 205.542 88.500 207.779 96.291 C 209.010 100.577, 211.563 107.153, 213.453 110.906 L 216.888 117.729 221.974 124.114 C 224.771 127.626, 229.634 132.645, 232.780 135.267 L 238.500 140.034 246 143.924 C 250.125 146.063, 256.875 148.864, 261 150.146 L 268.500 152.479 281.500 152.446 L 294.500 152.413 299 151.172 C 306.809 149.018, 316.269 144.806, 323.131 140.426 L 329.763 136.194 335.275 130.681 C 344.551 121.406, 350.843 110.729, 355.145 96.965 L 357.479 89.500 357.479 76.500 L 357.479 63.500 355.146 56 C 353.864 51.875, 351.051 45.100, 348.897 40.945 L 344.980 33.390 340.188 27.722 C 337.552 24.605, 332.546 19.767, 329.062 16.971 L 322.729 11.888 315.935 8.467 C 312.199 6.586, 305.848 4.104, 301.821 2.952 L 294.500 0.858 284 0.442 L 273.500 0.027 267.113 1.479 M 270.500 53.383 L 265.500 55.747 262.809 58.624 C 261.329 60.206, 259.201 63.525, 258.081 66 L 256.044 70.500 256.022 76.782 L 256 83.064 257.449 86.532 C 258.246 88.439, 260.044 91.502, 261.444 93.338 L 263.991 96.677 269.246 99.582 L 274.500 102.486 281.500 102.493 L 288.500 102.500 293 100.157 C 299.148 96.957, 301.756 94.369, 304.744 88.500 L 307.291 83.500 307.279 77 L 307.267 70.500 305.583 66.500 C 304.657 64.300, 302.459 60.982, 300.699 59.128 L 297.500 55.755 292.500 53.387 L 287.500 51.020 281.500 51.020 L 275.500 51.020 270.500 53.383 M 98.512 181 C 74.615 185.323, 54.911 199.503, 43.305 220.731 L 39.110 228.404 36.832 236.452 L 34.555 244.500 34.549 256.500 L 34.542 268.500 36.821 276.443 L 39.100 284.387 43.257 292.443 L 47.414 300.500 56.957 310 L 66.500 319.500 74.500 323.686 L 82.500 327.871 90.500 330.168 L 98.500 332.464 111 332.458 L 123.500 332.452 131.500 330.183 L 139.500 327.915 147.267 323.708 C 165.353 313.911, 177.943 298.694, 184.671 278.500 L 187.336 270.500 187.416 257 L 187.496 243.500 185.155 236 C 183.867 231.875, 180.963 224.900, 178.700 220.500 L 174.586 212.500 165.043 202.943 L 155.500 193.386 146 188.747 L 136.500 184.107 130.500 182.525 L 124.500 180.943 114 180.521 L 103.500 180.098 98.512 181 M 434 189.367 L 428.500 190.567 423.362 193.381 L 418.224 196.196 414.180 200.348 L 410.137 204.500 406.562 211.275 L 402.988 218.051 402.335 239.025 L 401.682 260 443.841 260 L 486 260 486 243.947 L 486 227.895 484.431 220.995 L 482.861 214.096 479.100 208.298 C 474.581 201.332, 468.777 195.934, 462.246 192.625 L 457.420 190.179 451.526 189.089 C 444.344 187.762, 441.126 187.813, 434 189.367 M 100.500 232.358 L 95.500 234.697 92.296 237.991 C 90.534 239.803, 88.284 242.908, 87.296 244.892 L 85.500 248.500 85.500 256 L 85.500 263.500 87.296 267.108 C 88.284 269.092, 90.534 272.197, 92.296 274.009 L 95.500 277.303 100.500 279.642 L 105.500 281.980 111 281.980 L 116.500 281.980 121.500 279.634 L 126.500 277.287 129.351 274.407 C 130.918 272.822, 133.158 269.720, 134.327 267.513 L 136.454 263.500 136.454 256 L 136.454 248.500 134.327 244.487 C 133.158 242.280, 130.918 239.178, 129.351 237.593 L 126.500 234.713 121.500 232.366 L 116.500 230.020 111 230.020 L 105.500 230.020 100.500 232.358 M 4.785 445.549 L 2.070 447.027 0.973 451.100 L -0.123 455.172 0.188 480.565 L 0.500 505.958 3.273 508.729 L 6.045 511.500 168.273 511.796 L 330.500 512.092 334.244 511.008 L 337.988 509.923 339.539 506.924 L 341.090 503.925 340.795 476.489 L 340.500 449.052 338.222 446.776 L 335.945 444.500 171.722 444.285 L 7.500 444.070 4.785 445.549" stroke="none" fill="#fcc49c" fill-rule="evenodd"/></svg>