<svg xmlns="http://www.w3.org/2000/svg" width="512" height="512" viewBox="0 0 512 512" version="1.1"><path d="M 167.684 106.435 C 165.585 107.191, 162.935 108.640, 161.796 109.655 C 160.656 110.670, 159.111 112.948, 158.362 114.718 L 157 117.936 157 260.361 L 157 402.786 158.750 403.594 L 160.500 404.401 193.192 404.783 L 225.885 405.165 226.192 353.332 L 226.500 301.500 229.083 295.994 C 230.504 292.966, 233.143 289.011, 234.949 287.205 C 236.754 285.400, 239.987 283.027, 242.133 281.932 C 244.279 280.837, 248.277 279.516, 251.017 278.997 L 256 278.052 261.074 279.014 C 263.864 279.543, 267.658 280.693, 269.503 281.569 C 271.349 282.444, 274.528 284.782, 276.569 286.764 L 280.279 290.367 282.814 295.905 L 285.349 301.442 285.425 329.137 C 285.466 344.370, 285.775 357.108, 286.111 357.444 C 286.448 357.781, 288.023 357.557, 289.611 356.948 L 292.500 355.840 299.217 355.832 L 305.935 355.824 311.217 358.305 C 314.123 359.670, 317.741 361.982, 319.259 363.442 C 320.776 364.902, 322.732 367.187, 323.605 368.520 L 325.192 370.943 329.346 368.821 L 333.500 366.700 340 366.276 L 346.500 365.852 351.250 367.328 L 356 368.804 356 243.718 L 356 118.631 353.929 114.353 L 351.858 110.075 348.179 107.788 L 344.500 105.500 258 105.280 L 171.500 105.060 167.684 106.435 M 244.058 209.122 C 239.965 209.596, 233.215 210.908, 229.058 212.037 C 224.901 213.167, 217.450 216.060, 212.500 218.467 C 207.550 220.874, 201.190 224.579, 198.367 226.700 C 195.544 228.821, 191.413 232.201, 189.188 234.211 C 186.962 236.222, 184.630 238.823, 184.004 239.992 L 182.867 242.117 183.513 245.057 L 184.158 247.998 186.302 249.499 L 188.445 251 191.567 251 L 194.689 251 200.594 245.830 C 203.842 242.986, 208.821 239.174, 211.658 237.358 C 214.495 235.542, 219.445 232.888, 222.658 231.460 C 225.871 230.033, 232.325 227.923, 237 226.772 L 245.500 224.680 256 224.680 L 266.500 224.680 275 226.772 C 279.675 227.923, 286.129 230.033, 289.342 231.460 C 292.555 232.888, 297.505 235.542, 300.342 237.358 C 303.179 239.174, 308.158 242.986, 311.406 245.830 L 317.311 251 320.433 251 L 323.555 251 325.698 249.499 L 327.842 247.998 328.487 245.057 L 329.133 242.117 327.996 239.992 C 327.370 238.823, 325.038 236.222, 322.812 234.211 C 320.587 232.201, 316.456 228.821, 313.633 226.700 C 310.810 224.579, 304.450 220.874, 299.500 218.467 C 294.550 216.060, 287.125 213.176, 283 212.058 C 278.875 210.941, 271.225 209.578, 266 209.030 C 260.775 208.483, 255.375 208.085, 254 208.147 C 252.625 208.209, 248.151 208.647, 244.058 209.122 M 246.531 244.113 C 243.248 244.592, 237.738 245.922, 234.288 247.071 L 228.014 249.158 220.742 253.906 C 216.742 256.517, 212.239 260.116, 210.735 261.903 L 208 265.153 208 268.122 L 208 271.091 210.455 273.545 L 212.909 276 215.791 276 L 218.672 276 224.600 271.242 C 227.861 268.626, 233.222 265.277, 236.514 263.800 L 242.500 261.115 249.250 260.039 L 256 258.962 262.750 260.039 L 269.500 261.115 275.486 263.800 C 278.778 265.277, 284.139 268.626, 287.400 271.242 L 293.328 276 296.209 276 L 299.091 276 301.545 273.545 L 304 271.091 304 268.122 L 304 265.153 301.265 261.903 C 299.761 260.116, 295.258 256.517, 291.258 253.906 L 283.986 249.158 277.743 247.096 C 274.309 245.962, 268.350 244.585, 264.500 244.037 C 260.650 243.488, 256.375 243.086, 255 243.142 C 253.625 243.198, 249.814 243.635, 246.531 244.113 M 252.462 295.088 L 249.425 295.947 246.632 298.862 L 243.840 301.777 242.944 305.638 L 242.048 309.500 242.024 395.211 L 242 480.922 239.811 482.961 L 237.623 485 234.746 485 C 233.163 485, 231.051 484.563, 230.052 484.028 C 229.053 483.493, 227.867 482.256, 227.416 481.278 C 226.966 480.300, 226.351 473.008, 226.049 465.072 L 225.500 450.645 220.013 455.122 C 216.995 457.584, 213.062 461.519, 211.272 463.866 L 208.017 468.133 206.574 473.316 L 205.130 478.500 204.784 495.250 L 204.438 512 301.719 512 L 399 512 399 460.968 L 399 409.936 397.621 406.636 C 396.863 404.821, 395.017 402.372, 393.520 401.194 C 392.022 400.016, 389.287 398.769, 387.442 398.423 L 384.087 397.794 380.307 399.647 L 376.526 401.500 374.263 404.898 L 372 408.296 372 422.092 L 372 435.888 369.630 438.644 L 367.259 441.400 363.501 441.400 L 359.742 441.400 357.871 439.089 L 356 436.778 355.998 415.139 L 355.997 393.500 354.248 390.020 L 352.500 386.540 349.102 384.270 L 345.704 382 342.753 382 C 341.130 382, 338.219 382.751, 336.283 383.670 L 332.764 385.340 330.886 388.420 L 329.007 391.500 329.004 410.827 L 329 430.154 326.077 433.077 L 323.154 436 320.712 436 L 318.270 436 315.697 433.976 L 313.124 431.953 312.812 406.726 L 312.500 381.500 310.614 378.386 C 309.577 376.673, 307.483 374.535, 305.960 373.636 L 303.191 372 298.581 372 L 293.971 372 290.235 375.421 L 286.500 378.842 286 405.009 L 285.500 431.177 282.694 433.589 L 279.888 436 277.579 436 L 275.270 436 272.670 433.955 L 270.070 431.910 269.785 368.205 L 269.500 304.500 267.614 301.386 C 266.577 299.673, 264.552 297.596, 263.114 296.771 C 261.677 295.947, 259.375 295.037, 258 294.751 C 256.625 294.464, 254.133 294.616, 252.462 295.088" stroke="none" fill="#fcc49c" fill-rule="evenodd"/><path d="M 212.500 1.867 C 210.300 2.870, 207.088 4.883, 205.363 6.339 L 202.226 8.988 200.250 13.244 C 199.164 15.585, 197.979 19.125, 197.618 21.111 L 196.962 24.722 198.073 29.904 L 199.184 35.086 202.389 39.293 L 205.593 43.500 209.797 45.825 L 214 48.150 214 69.075 L 214 90 190.035 90 L 166.070 90 161.382 91.591 L 156.695 93.183 146.817 83.305 L 136.938 73.426 138.469 69.087 L 140 64.749 140 60.052 L 140 55.356 138.446 50.795 L 136.891 46.233 133.420 42.178 L 129.948 38.122 124.224 35.311 L 118.500 32.500 111.972 32.554 L 105.443 32.607 100.872 34.820 C 98.357 36.037, 94.665 38.668, 92.667 40.667 C 90.668 42.665, 88.033 46.366, 86.811 48.891 L 84.588 53.482 84.588 60.060 L 84.588 66.638 87.345 72.273 L 90.102 77.908 93.185 80.502 C 94.880 81.928, 98.087 84.024, 100.311 85.159 L 104.355 87.222 110.074 87.740 L 115.792 88.259 120.623 86.613 L 125.454 84.967 135.181 94.733 L 144.907 104.500 142.986 110 L 141.065 115.500 141.033 144.750 L 141 174 121.865 174 L 102.731 174 93.456 164.905 L 84.182 155.810 85.702 152.171 L 87.222 148.533 87.185 142.101 L 87.148 135.670 84.306 130.113 L 81.464 124.557 76.581 120.866 L 71.698 117.175 67.325 115.951 L 62.952 114.727 57.154 115.252 L 51.355 115.778 47.293 117.850 C 45.059 118.990, 41.761 121.393, 39.963 123.190 C 38.166 124.988, 35.644 128.718, 34.358 131.479 L 32.020 136.500 32.010 142.072 L 32 147.644 33.554 152.205 L 35.109 156.767 38.580 160.822 L 42.052 164.878 47.541 167.564 L 53.031 170.250 59.266 170.241 L 65.500 170.231 69 168.759 L 72.500 167.287 82.603 177.061 L 92.705 186.835 98.034 188.417 L 103.363 190 122.182 190 L 141 190 141 206.839 L 141 223.678 108.526 224.355 L 76.051 225.031 62.015 224.361 L 47.979 223.691 45.740 219.642 L 43.500 215.593 39.271 212.372 L 35.042 209.150 29.714 208.044 L 24.386 206.938 19.150 208.061 L 13.914 209.184 9.707 212.349 L 5.500 215.514 2.750 220.936 L 0 226.359 0.022 232.429 L 0.044 238.500 1.878 242.539 L 3.713 246.577 8.346 250.656 L 12.980 254.734 17.516 256.004 L 22.052 257.274 27.634 256.698 L 33.217 256.122 37.038 253.594 C 39.139 252.203, 41.998 249.837, 43.390 248.336 C 44.782 246.834, 46.443 244.345, 47.082 242.803 L 48.243 240 94.621 240 L 141 240 141 266 L 141 292 94.621 292 L 48.243 292 47.082 289.197 C 46.443 287.655, 44.782 285.166, 43.390 283.664 C 41.998 282.163, 39.139 279.797, 37.038 278.406 L 33.217 275.878 27.634 275.302 L 22.052 274.726 17.516 275.996 L 12.980 277.266 8.346 281.344 L 3.713 285.423 1.878 289.461 L 0.044 293.500 0.022 299.636 L -0 305.772 2.793 311.118 L 5.585 316.463 9.772 319.656 L 13.958 322.850 19.286 323.956 L 24.614 325.062 29.850 323.939 L 35.086 322.816 39.293 319.611 L 43.500 316.407 45.825 312.203 L 48.150 308 94.575 308 L 141 308 141 325 L 141 342 122.182 342 L 103.363 342 98.034 343.583 L 92.705 345.165 82.603 354.939 L 72.500 364.713 69 363.239 L 65.500 361.766 59.389 361.698 L 53.277 361.630 47.664 364.376 L 42.052 367.122 38.580 371.178 L 35.109 375.233 33.554 379.795 L 32 384.356 32.010 389.928 L 32.020 395.500 34.358 400.521 C 35.644 403.282, 38.166 407.012, 39.963 408.810 C 41.761 410.607, 45.059 413.010, 47.293 414.150 L 51.355 416.222 57.154 416.748 L 62.952 417.273 67.325 416.049 L 71.698 414.825 76.581 411.134 L 81.464 407.443 84.357 401.787 L 87.250 396.130 87.247 389.815 L 87.243 383.500 85.713 379.845 L 84.182 376.190 93.456 367.095 L 102.731 358 121.865 358 L 141 358 141.022 381.250 L 141.044 404.500 142.880 408.541 L 144.715 412.583 147.889 415.253 C 149.634 416.722, 152.736 418.429, 154.781 419.047 L 158.500 420.172 192.750 420.720 L 227 421.268 227 425.944 L 227 430.620 216.627 437.772 L 206.254 444.924 201.877 449.793 C 199.470 452.471, 196.277 456.909, 194.783 459.656 C 193.289 462.402, 191.376 467.298, 190.533 470.535 L 189 476.420 189 494.210 L 189 512 196.364 512 L 203.728 512 204.364 507.360 C 204.714 504.809, 205 496.949, 205 489.895 L 205 477.070 206.596 472.368 C 207.474 469.782, 209.374 465.881, 210.818 463.699 L 213.444 459.731 219.972 454.788 L 226.500 449.844 226.775 465.369 L 227.050 480.894 229.660 482.947 C 231.095 484.076, 233.273 485, 234.500 485 L 236.730 485 239.344 482.944 L 241.958 480.888 242.229 392.194 L 242.500 303.500 244.319 300.819 C 245.320 299.345, 247.345 297.347, 248.819 296.379 L 251.500 294.620 256 294.620 L 260.500 294.620 263.181 296.379 C 264.655 297.347, 266.680 299.345, 267.681 300.819 L 269.500 303.500 270 367.715 L 270.500 431.930 272.236 433.665 L 273.971 435.400 277.500 435.400 L 281.029 435.400 282.764 433.667 L 284.500 431.934 285.010 406.717 L 285.519 381.500 287.277 378.267 L 289.034 375.034 292.267 373.355 L 295.500 371.677 299.531 371.672 L 303.562 371.667 306.211 373.403 C 307.669 374.358, 309.680 376.345, 310.681 377.819 L 312.500 380.500 312.763 404.500 C 312.907 417.700, 313.251 429.504, 313.527 430.732 L 314.029 432.964 317.006 434.503 L 319.983 436.042 322.418 435.431 C 323.757 435.095, 325.673 433.914, 326.676 432.807 L 328.500 430.794 329 410.597 L 329.500 390.400 331.259 387.721 C 332.227 386.247, 334.439 384.307, 336.175 383.409 L 339.331 381.777 343.728 382.273 L 348.125 382.768 350.657 385.134 C 352.050 386.435, 353.822 388.715, 354.595 390.200 L 356 392.901 356 414.762 L 356 436.623 358.039 438.811 C 359.160 440.015, 360.848 441.052, 361.789 441.115 C 362.730 441.178, 364.400 441.143, 365.500 441.036 C 366.600 440.930, 368.400 439.966, 369.500 438.896 L 371.500 436.949 372 421.725 L 372.500 406.500 374.309 403.836 C 375.303 402.371, 377.725 400.409, 379.690 399.477 L 383.264 397.781 386.738 398.345 C 388.648 398.655, 391.310 399.629, 392.654 400.509 C 393.997 401.389, 395.972 403.547, 397.044 405.304 L 398.993 408.500 398.996 460.250 L 399 512 407.041 512 L 415.082 512 414.791 458.250 L 414.500 404.500 412.077 399.577 C 410.744 396.869, 408.026 393.026, 406.035 391.035 C 404.044 389.044, 400.390 386.464, 397.915 385.300 C 395.440 384.137, 391.409 382.887, 388.957 382.524 L 384.500 381.863 379.920 382.898 C 377.401 383.467, 374.589 384.221, 373.670 384.573 L 372 385.214 372 371.607 L 372 358 390.635 358 L 409.269 358 418.544 367.095 L 427.818 376.190 426.287 379.845 L 424.757 383.500 424.753 389.815 L 424.750 396.130 427.643 401.787 L 430.536 407.443 435.419 411.134 L 440.302 414.825 444.675 416.049 L 449.048 417.273 454.846 416.748 L 460.645 416.222 464.707 414.150 C 466.941 413.010, 470.239 410.607, 472.037 408.810 C 473.834 407.012, 476.356 403.282, 477.642 400.521 L 479.980 395.500 479.990 389.928 L 480 384.356 478.446 379.795 L 476.891 375.233 473.420 371.178 L 469.948 367.122 464.336 364.376 L 458.723 361.630 452.611 361.698 L 446.500 361.766 443 363.239 L 439.500 364.713 429.397 354.939 L 419.295 345.165 413.966 343.583 L 408.637 342 390.318 342 L 372 342 372 325 L 372 308 417.925 308 L 463.850 308 466.175 312.203 L 468.500 316.407 472.729 319.628 L 476.958 322.850 482.286 323.956 L 487.614 325.062 492.850 323.939 L 498.086 322.816 502.232 319.653 L 506.379 316.491 509.625 310.495 L 512.871 304.500 512.936 298.191 L 513 291.882 512.182 292.388 L 511.363 292.894 510.135 289.498 L 508.907 286.102 504.007 281.696 L 499.106 277.290 494.527 276.008 L 489.948 274.726 484.587 275.279 C 481.638 275.583, 477.937 276.502, 476.363 277.320 C 474.788 278.139, 471.853 280.461, 469.839 282.482 C 467.826 284.502, 465.634 287.470, 464.968 289.077 L 463.757 292 418.021 292 L 372.285 292 371.642 285.853 C 371.289 282.473, 371 274.892, 371 269.007 C 371 263.122, 371.292 254.188, 371.650 249.154 L 372.299 240 418.028 240 L 463.757 240 464.918 242.803 C 465.557 244.345, 467.218 246.834, 468.610 248.336 C 470.002 249.837, 472.861 252.203, 474.962 253.594 L 478.783 256.122 484.366 256.698 L 489.948 257.274 494.484 256.004 L 499.020 254.734 503.577 250.723 L 508.134 246.712 510.567 241.669 L 513 236.626 513 230.646 C 513 227.357, 512.732 224.935, 512.404 225.263 C 512.076 225.591, 510.594 223.537, 509.111 220.698 L 506.415 215.537 502.228 212.344 L 498.042 209.150 492.714 208.044 L 487.386 206.938 482.150 208.061 L 476.914 209.184 472.707 212.389 L 468.500 215.593 466.175 219.797 L 463.850 224 417.925 224 L 372 224 372 207 L 372 190 390.318 190 L 408.637 190 413.966 188.417 L 419.295 186.835 429.397 177.061 L 439.500 167.287 443 168.759 L 446.500 170.231 452.734 170.241 L 458.969 170.250 464.459 167.564 L 469.948 164.878 473.420 160.822 L 476.891 156.767 478.446 152.205 L 480 147.644 479.990 142.072 L 479.980 136.500 477.642 131.479 C 476.356 128.718, 473.834 124.988, 472.037 123.190 C 470.239 121.393, 466.941 118.990, 464.707 117.850 L 460.645 115.778 454.846 115.252 L 449.048 114.727 444.675 115.951 L 440.302 117.175 435.419 120.866 L 430.536 124.557 427.643 130.213 L 424.750 135.870 424.753 142.185 L 424.757 148.500 426.287 152.155 L 427.818 155.810 418.544 164.905 L 409.269 174 390.712 174 L 372.154 174 371.827 143.750 L 371.500 113.500 369.360 108.872 L 367.220 104.243 376.892 94.608 L 386.563 84.973 391.386 86.616 L 396.208 88.259 401.926 87.740 L 407.645 87.222 411.689 85.159 C 413.913 84.024, 417.120 81.928, 418.815 80.502 L 421.898 77.908 424.655 72.273 L 427.412 66.638 427.412 60.060 L 427.412 53.482 425.189 48.891 C 423.967 46.366, 421.332 42.665, 419.333 40.667 C 417.335 38.668, 413.643 36.037, 411.128 34.820 L 406.557 32.607 400.028 32.554 L 393.500 32.500 387.776 35.311 L 382.052 38.122 378.580 42.178 L 375.109 46.233 373.554 50.795 L 372 55.356 372 60.052 L 372 64.749 373.531 69.087 L 375.062 73.426 365.244 83.244 L 355.426 93.062 351.087 91.531 L 346.749 90 322.374 90 L 298 90 298 69.075 L 298 48.150 302.203 45.825 L 306.407 43.500 309.628 39.271 L 312.850 35.042 313.956 29.714 L 315.062 24.386 313.939 19.150 L 312.816 13.914 309.640 9.750 L 306.463 5.585 301.118 2.793 L 295.772 -0 289.636 0.022 L 283.500 0.044 279.461 1.878 L 275.423 3.713 271.212 8.496 L 267.002 13.280 265.890 17.390 L 264.778 21.500 265.300 27.317 L 265.822 33.133 268.379 36.996 C 269.785 39.120, 272.163 41.998, 273.664 43.390 C 275.166 44.782, 277.655 46.443, 279.197 47.082 L 282 48.243 282 69.121 L 282 90 256 90 L 230 90 230 69.121 L 230 48.243 232.923 47.032 C 234.530 46.366, 237.498 44.174, 239.518 42.161 C 241.539 40.147, 243.873 37.190, 244.705 35.588 L 246.219 32.676 246.721 27.088 L 247.222 21.500 246.048 17.159 L 244.874 12.819 240.687 8.258 L 236.500 3.698 232.500 1.871 L 228.500 0.044 222.500 0.044 L 216.500 0.044 212.500 1.867 M 168.185 105.979 C 166.361 106.416, 163.731 107.837, 162.340 109.137 C 160.948 110.437, 159.178 112.715, 158.405 114.200 L 157 116.901 157 259.891 L 157 402.882 158.250 403.691 L 159.500 404.500 193.216 404.821 L 226.933 405.142 227.216 351.821 L 227.500 298.500 230.212 293.887 C 231.703 291.350, 234.605 287.798, 236.661 285.993 C 238.717 284.188, 242.376 281.837, 244.793 280.767 L 249.187 278.824 256 278.824 L 262.813 278.824 267.207 280.767 C 269.624 281.837, 273.283 284.188, 275.339 285.993 C 277.395 287.798, 280.297 291.350, 281.788 293.887 L 284.500 298.500 284.804 328.687 L 285.107 358.873 289.179 357.437 L 293.251 356 298.948 356 L 304.644 356 309.572 357.669 L 314.500 359.337 320.150 365.092 L 325.801 370.848 329.748 368.895 C 331.919 367.821, 335.989 366.670, 338.792 366.338 L 343.889 365.735 348.316 366.849 C 350.750 367.462, 353.481 368.247, 354.383 368.593 L 356.023 369.223 355.761 242.185 L 355.500 115.146 353.395 112.323 C 352.238 110.770, 349.763 108.600, 347.895 107.500 L 344.500 105.500 258 105.342 L 171.500 105.183 168.185 105.979 M 246.500 209.128 L 237.500 209.902 228.551 212.504 C 223.629 213.936, 215.979 216.925, 211.551 219.146 C 207.123 221.368, 201.025 225.008, 198 227.234 C 194.975 229.460, 190.770 232.906, 188.656 234.891 C 186.542 236.876, 184.415 239.512, 183.931 240.750 L 183.050 243 184.064 245.669 C 184.622 247.136, 185.848 248.922, 186.789 249.637 C 187.730 250.352, 189.655 250.951, 191.068 250.968 L 193.635 251 202.565 243.835 L 211.495 236.670 219.498 232.845 C 223.899 230.742, 231.100 228.059, 235.500 226.883 L 243.500 224.746 256 224.746 L 268.500 224.746 276.500 226.883 C 280.900 228.059, 288.101 230.742, 292.502 232.845 L 300.505 236.670 309.435 243.835 L 318.365 251 320.932 250.968 C 322.345 250.951, 324.270 250.352, 325.211 249.637 C 326.152 248.922, 327.378 247.136, 327.936 245.669 L 328.950 243 328.069 240.750 C 327.585 239.512, 325.458 236.876, 323.344 234.891 C 321.230 232.906, 317.022 229.447, 313.994 227.205 C 310.966 224.963, 304.891 221.329, 300.494 219.130 C 296.097 216.931, 288.504 213.975, 283.621 212.561 L 274.742 209.990 267.621 209.447 C 263.704 209.149, 259.375 208.781, 258 208.629 C 256.625 208.478, 251.450 208.702, 246.500 209.128 M 0.328 232.500 L 0.336 239.500 0.730 235.728 C 0.946 233.653, 0.943 230.503, 0.722 228.728 L 0.320 225.500 0.328 232.500 M 252 243.727 C 250.075 243.879, 245.800 244.495, 242.500 245.095 L 236.500 246.186 229.500 249.442 C 225.650 251.232, 219.744 254.786, 216.375 257.339 L 210.250 261.981 209.004 264.991 L 207.757 268 208.964 270.914 L 210.172 273.828 213.012 275.005 L 215.853 276.182 217.882 275.537 C 218.998 275.183, 222.069 273.097, 224.706 270.901 C 227.343 268.705, 232.225 265.598, 235.556 263.996 L 241.612 261.083 248.806 259.895 L 256 258.707 263.194 259.895 L 270.388 261.083 276.444 263.996 C 279.775 265.598, 284.657 268.705, 287.294 270.901 C 289.931 273.097, 293.002 275.183, 294.118 275.537 L 296.147 276.182 298.988 275.005 L 301.828 273.828 303.036 270.914 L 304.243 268 303.032 265.077 L 301.821 262.155 295.915 257.514 C 292.666 254.962, 286.744 251.369, 282.754 249.530 L 275.500 246.186 269.500 245.136 C 266.200 244.559, 261.700 243.944, 259.500 243.769 C 257.300 243.594, 253.925 243.575, 252 243.727 M 0.328 299.500 L 0.336 306.500 0.730 302.728 C 0.946 300.653, 0.943 297.503, 0.722 295.728 L 0.320 292.500 0.328 299.500" stroke="none" fill="#f46c04" fill-rule="evenodd"/></svg>