<svg xmlns="http://www.w3.org/2000/svg" width="602" height="516" viewBox="0 0 602 516" version="1.1"><path d="M 360.772 144.714 C 356.866 145.308, 354.680 148.668, 352.679 157.153 L 350.927 164.584 344.714 167.869 C 341.296 169.676, 337.327 171.873, 335.894 172.752 L 333.288 174.349 327.681 172.074 C 324.598 170.822, 320.370 169.704, 318.287 169.589 L 314.500 169.380 311.500 172.503 C 309.850 174.221, 307.600 177.398, 306.500 179.563 C 305.400 181.728, 303.447 185.243, 302.159 187.374 L 299.818 191.248 301.556 194.475 C 302.512 196.250, 305.816 199.786, 308.897 202.332 L 314.500 206.962 314.437 216.883 L 314.375 226.805 308.638 232.048 C 305.482 234.932, 302.312 238.463, 301.593 239.896 L 300.286 242.500 303.202 248.500 C 304.806 251.800, 307.587 256.525, 309.383 259 L 312.649 263.500 316.074 264.345 L 319.500 265.191 326.165 262.750 L 332.831 260.310 335.955 261.623 C 337.674 262.346, 339.769 263.626, 340.611 264.469 C 341.454 265.311, 342.681 266, 343.339 266 C 343.997 266, 346.123 267.079, 348.064 268.398 L 351.592 270.795 352.906 277.402 C 354.449 285.169, 356.690 288.413, 361.641 290.046 L 365.250 291.238 373.626 290.798 L 382.002 290.358 384.927 287.082 L 387.852 283.805 389.011 276.935 L 390.170 270.064 395.544 267.435 C 398.500 265.988, 401.906 263.949, 403.112 262.903 C 405.920 260.467, 409.650 260.495, 416.239 262.999 C 419.133 264.099, 422.699 264.999, 424.165 264.999 L 426.830 265 431.015 260.250 C 433.317 257.637, 436.521 252.592, 438.134 249.038 L 441.067 242.576 439.978 239.947 C 439.379 238.502, 436.461 235.335, 433.493 232.910 L 428.097 228.500 428.049 217.790 L 428 207.080 433.087 202.322 C 435.885 199.704, 438.846 196.265, 439.666 194.679 L 441.158 191.794 439.062 186.922 C 436.709 181.453, 432.117 174.321, 429.318 171.788 C 426.628 169.354, 420.379 169.456, 413.500 172.045 L 407.500 174.304 401.271 170.266 C 397.845 168.045, 393.959 165.956, 392.636 165.623 L 390.230 165.020 389.633 161.760 C 389.305 159.967, 388.855 157.116, 388.634 155.424 C 388.413 153.732, 387.504 150.941, 386.614 149.221 L 384.997 146.093 381.248 145.052 C 377.629 144.047, 366.385 143.861, 360.772 144.714 M 362.503 196.937 C 360.628 197.797, 357.092 200.396, 354.646 202.712 L 350.198 206.924 349.505 211.962 C 349.124 214.733, 349.116 219.212, 349.488 221.915 L 350.164 226.829 352.994 230.665 L 355.824 234.500 361.890 236.892 L 367.957 239.284 372.910 238.697 C 375.634 238.374, 379.670 237.188, 381.879 236.062 L 385.895 234.013 389.181 229.256 L 392.467 224.500 392.611 217.752 L 392.756 211.003 389.628 205.800 L 386.500 200.598 381.839 198.209 L 377.178 195.821 371.545 195.598 L 365.913 195.374 362.503 196.937 M 201.962 228.516 C 196.034 231.022, 186.262 238.153, 185.292 240.680 C 184.949 241.574, 185.217 244.150, 185.887 246.403 C 186.557 248.656, 187.587 252.500, 188.175 254.945 L 189.245 259.390 187.465 262.695 C 186.486 264.513, 185.367 266, 184.978 266 C 184.590 266, 183.507 268.001, 182.573 270.447 L 180.875 274.894 175.187 276.490 C 172.059 277.367, 167.746 278.628, 165.602 279.292 L 161.703 280.500 159.797 284 L 157.891 287.500 158.196 296.186 L 158.500 304.871 161.324 307.818 L 164.148 310.764 169.324 311.928 C 172.171 312.569, 175.617 313.369, 176.982 313.707 C 179.584 314.351, 182 316.271, 182 317.693 C 182 319.002, 186.007 326.150, 187.676 327.819 L 189.179 329.322 188.493 333.898 C 188.115 336.414, 187.175 339.695, 186.403 341.187 C 184.494 344.879, 184.639 349.280, 186.750 351.704 C 190.976 356.558, 203.514 363, 208.736 363 L 211.173 363 217.559 356.868 L 223.945 350.736 234.018 350.760 L 244.092 350.784 249.492 356.360 C 255.600 362.666, 258.255 363.715, 263.697 361.972 C 269.201 360.210, 280.732 352.420, 281.522 349.930 C 282.392 347.190, 281.208 339.303, 279.403 335.813 C 277.358 331.858, 277.594 330.754, 281.859 324.321 C 283.981 321.119, 286.007 317.581, 286.360 316.459 L 287.002 314.418 293.415 312.709 C 296.942 311.769, 300.736 311, 301.846 311 C 302.968 311, 304.859 309.602, 306.106 307.851 L 308.348 304.703 308.795 296.983 L 309.242 289.263 308.032 285.596 C 306.537 281.066, 303.876 279.260, 295.984 277.419 C 289.344 275.870, 285.480 274.186, 286.417 273.250 C 286.740 272.927, 286.404 271.951, 285.669 271.081 C 283.109 268.050, 278 258.959, 278 257.435 C 278 256.591, 278.748 254.461, 279.661 252.700 C 280.575 250.940, 281.454 246.905, 281.614 243.733 L 281.906 237.966 277.703 235.301 C 275.391 233.835, 270.527 231.144, 266.893 229.320 L 260.286 226.005 257.339 227.032 C 255.719 227.596, 252.028 230.745, 249.138 234.029 L 243.882 240 233.967 240 L 224.051 240 220.776 236.410 C 215.240 230.344, 211.929 227.527, 209.569 226.878 L 207.309 226.256 201.962 228.516 M 225.031 274.862 C 222.574 275.892, 218.902 278.607, 216.872 280.894 L 213.180 285.054 212.496 290.027 C 212.120 292.762, 212.126 297.280, 212.509 300.066 L 213.206 305.132 216.899 308.816 C 218.931 310.842, 221.626 313.247, 222.888 314.159 L 225.183 315.818 233.531 315.818 L 241.880 315.818 246.002 313.159 L 250.123 310.500 253.043 305.411 L 255.963 300.321 255.660 293.686 L 255.356 287.051 253.678 285.197 C 252.755 284.177, 252 282.846, 252 282.239 C 252 281.108, 247.488 277.550, 243.014 275.153 C 241.631 274.413, 238.025 273.623, 235 273.397 L 229.500 272.988 225.031 274.862" stroke="none" fill="#fbc39a" fill-rule="evenodd"/><path d="M 205.500 4.377 C 199.542 7.187, 196.826 9.952, 194.084 16 L 192.044 20.500 192.022 43.128 L 192 65.756 173.750 66.271 L 155.500 66.785 145.500 69.319 C 98.612 81.196, 63.775 115.991, 51.206 163.500 L 48.560 173.500 48.246 267.250 L 47.932 361 46.774 361 C 44.174 361, 31.400 369.602, 24.913 375.721 C 13.258 386.716, 5.703 399.770, 1.959 415.386 L 0.014 423.500 0.014 434 L 0.014 444.500 1.959 452.614 C 9.083 482.326, 31.674 504.917, 61.386 512.041 L 69.500 513.986 80 513.986 L 90.500 513.986 98.614 512.041 C 128.326 504.917, 150.917 482.326, 158.041 452.614 L 159.986 444.500 159.986 434 L 159.986 423.500 158.041 415.386 C 154.297 399.770, 146.742 386.716, 135.087 375.721 C 128.511 369.518, 115.816 361, 113.147 361 L 111.909 361 112.257 272.250 L 112.604 183.500 114.276 178 C 115.195 174.975, 117.604 169.125, 119.630 165 L 123.313 157.500 131.406 149.406 L 139.500 141.313 147 137.630 C 157.556 132.447, 163.593 131.058, 178.750 130.329 L 192 129.692 192.022 152.596 L 192.044 175.500 194.084 180 C 196.826 186.048, 199.542 188.813, 205.500 191.623 L 210.500 193.980 216.136 193.990 L 221.772 194 226.866 191.250 L 231.961 188.500 273.858 150.748 L 315.755 112.996 317.878 108.063 L 320 103.129 320 98 L 320 92.871 317.891 87.969 L 315.782 83.067 273.859 45.283 L 231.936 7.500 226.854 4.750 L 221.772 2 216.136 2.010 L 210.500 2.020 205.500 4.377 M 500.920 4.010 C 471.540 11.239, 449.026 33.912, 441.959 63.386 L 440.014 71.500 440.014 82 L 440.014 92.500 441.959 100.614 C 445.703 116.230, 453.258 129.284, 464.913 140.279 C 471.489 146.482, 484.184 155, 486.853 155 L 488.091 155 487.743 243.750 L 487.396 332.500 485.724 338 C 484.805 341.025, 482.396 346.875, 480.370 351 L 476.687 358.500 468.594 366.594 L 460.500 374.687 453 378.370 C 442.444 383.553, 436.407 384.942, 421.250 385.671 L 408 386.308 407.990 363.404 L 407.980 340.500 405.623 335.500 C 402.813 329.542, 400.048 326.826, 394 324.084 L 389.500 322.044 383.864 322.022 L 378.228 322 373.149 324.750 L 368.070 327.500 326.138 365.296 L 284.207 403.092 282.103 407.982 L 280 412.871 280 418 L 280 423.129 282.103 428.018 L 284.207 432.908 326.138 470.704 L 368.070 508.500 373.149 511.250 L 378.228 514 383.864 513.978 L 389.500 513.956 394 511.916 C 400.048 509.174, 402.813 506.458, 405.623 500.500 L 407.980 495.500 407.990 472.872 L 408 450.244 426.250 449.724 L 444.500 449.203 453 447.074 C 477.695 440.890, 497.039 430.033, 514.536 412.536 C 531.950 395.123, 542.489 376.406, 549.187 351 L 551.428 342.500 551.748 248.750 L 552.068 155 553.226 155 C 555.771 155, 567.999 146.776, 574.757 140.519 C 586.494 129.652, 594.241 116.347, 598.059 100.500 L 599.986 92.500 599.986 82 L 599.986 71.500 598.041 63.386 C 590.917 33.674, 568.326 11.083, 538.614 3.959 L 530.500 2.014 519.500 2.079 L 508.500 2.145 500.920 4.010 M 513.821 59.373 C 505.076 61.769, 499.096 68.145, 497.056 77.248 L 496.007 81.933 497.095 87.009 C 498.503 93.572, 503.263 99.745, 509.321 102.862 L 514.123 105.333 520 105.333 L 525.877 105.333 530.679 102.862 C 536.723 99.752, 541.498 93.570, 542.897 87.043 L 543.979 82 542.897 76.957 C 540.138 64.091, 526.563 55.881, 513.821 59.373 M 356.074 145.772 L 353.302 148.544 351.624 156.086 L 349.946 163.627 345.223 165.890 C 342.625 167.134, 338.923 169.227, 336.996 170.541 L 333.493 172.931 326.701 170.465 C 319.460 167.837, 316 167.368, 316 169.016 C 316 169.575, 317.260 169.936, 318.800 169.818 C 320.340 169.701, 324.229 170.672, 327.443 171.977 L 333.288 174.349 335.894 172.752 C 337.327 171.873, 341.296 169.676, 344.714 167.869 L 350.927 164.584 352.697 157.076 C 353.671 152.947, 355.396 148.489, 356.530 147.170 L 358.593 144.772 367.546 144.271 L 376.500 143.769 380.743 144.921 L 384.987 146.073 386.609 149.211 C 387.501 150.936, 388.413 153.732, 388.634 155.424 C 388.855 157.116, 389.305 159.967, 389.633 161.760 L 390.230 165.020 392.636 165.623 C 393.959 165.956, 397.747 167.976, 401.054 170.114 C 404.362 172.251, 407.462 174, 407.945 174 C 409.337 174, 420.079 169.746, 419.684 169.351 C 419.488 169.155, 416.781 169.871, 413.669 170.942 L 408.010 172.889 400.801 168.445 C 396.836 166, 393.065 164, 392.421 164 C 391.262 164, 390 159.669, 390 155.691 C 390 152.210, 386.110 145.371, 383.438 144.154 C 382.014 143.505, 376.080 143, 369.876 143 L 358.846 143 356.074 145.772 M 421 168.869 C 421 169.491, 422.491 170, 424.313 170 L 427.626 170 430.083 172.750 C 434.002 177.135, 436.623 181.253, 438.971 186.710 L 441.158 191.794 439.666 194.679 C 438.846 196.265, 435.885 199.704, 433.087 202.322 L 428 207.080 428.049 217.790 L 428.097 228.500 433.493 232.910 C 436.461 235.335, 439.379 238.502, 439.978 239.947 L 441.067 242.576 438.134 249.038 C 436.521 252.592, 433.317 257.637, 431.015 260.250 L 426.830 265 424.165 264.999 C 422.699 264.999, 419.133 264.099, 416.239 262.999 C 409.650 260.495, 405.920 260.467, 403.112 262.903 C 401.906 263.949, 398.500 265.988, 395.544 267.435 L 390.170 270.064 389.011 276.935 L 387.852 283.805 384.927 287.082 L 382.002 290.358 373.626 290.798 L 365.250 291.238 361.641 290.046 C 356.690 288.413, 354.449 285.169, 352.906 277.402 L 351.592 270.795 348.064 268.398 C 346.123 267.079, 343.997 266, 343.339 266 C 342.681 266, 341.454 265.311, 340.611 264.469 C 339.769 263.626, 337.674 262.346, 335.955 261.623 L 332.831 260.310 326.165 262.750 L 319.500 265.191 316.074 264.345 L 312.649 263.500 309.367 259 C 307.562 256.525, 304.850 251.847, 303.341 248.605 C 301.832 245.363, 300.430 243.210, 300.226 243.821 C 299.661 245.517, 306.978 258.835, 310.563 262.636 L 313.736 266 317.047 266 C 318.868 266, 323.384 265.025, 327.083 263.834 L 333.808 261.668 338.654 264.686 C 341.319 266.345, 344.951 268.270, 346.725 268.963 L 349.950 270.222 351.639 278.081 L 353.328 285.940 356.228 288.720 L 359.129 291.500 368.239 291.856 C 384.024 292.473, 387.986 289.940, 390.010 277.939 L 391.193 270.928 397.846 267.457 C 401.506 265.548, 405.288 263.429, 406.252 262.747 L 408.004 261.508 414.439 263.754 C 422.508 266.570, 425.987 266.585, 429.505 263.817 C 433.030 261.045, 439.678 250.808, 441.155 245.879 L 442.286 242.104 441.077 239.186 C 440.412 237.581, 437.423 234.157, 434.434 231.576 L 429 226.885 429 217.390 L 429 207.894 434.970 202.368 L 440.939 196.841 441.570 193.478 L 442.201 190.115 437.911 182.063 C 432.799 172.469, 429.576 169.130, 424.656 168.332 L 421 167.738 421 168.869 M 309.960 172.205 C 306.733 175.738, 299.509 188.842, 300.333 189.666 C 300.830 190.164, 302.080 188.086, 306.348 179.667 C 307.417 177.558, 309.741 174.296, 311.514 172.417 C 313.286 170.538, 314.320 169, 313.812 169 C 313.303 169, 311.570 170.442, 309.960 172.205 M 300.032 194.272 C 300.002 195.939, 310.617 207, 312.246 207 C 312.661 207, 313 211.298, 313 216.550 L 313 226.100 306.500 232.319 L 300 238.537 300.004 240.519 L 300.007 242.500 301.847 239.484 C 302.859 237.825, 306.091 234.305, 309.030 231.663 L 314.374 226.858 314.437 216.910 L 314.500 206.962 308.757 202.231 C 305.599 199.629, 303.011 197.249, 303.007 196.941 C 303.003 196.634, 302.339 195.509, 301.532 194.441 L 300.064 192.500 300.032 194.272 M 362.503 196.937 C 360.628 197.797, 357.092 200.396, 354.646 202.712 L 350.198 206.924 349.505 211.962 C 349.124 214.733, 349.116 219.212, 349.488 221.915 L 350.164 226.829 352.994 230.665 L 355.824 234.500 361.890 236.892 L 367.957 239.284 372.910 238.697 C 375.634 238.374, 379.696 237.175, 381.937 236.032 L 386.010 233.954 389.586 228.568 L 393.163 223.181 392.779 220.841 L 392.395 218.500 391.257 222.328 C 389.532 228.128, 385.300 232.952, 379.617 235.598 C 370.474 239.855, 361.766 237.911, 354.637 230.019 L 351.146 226.156 350.451 221.522 C 348.997 211.828, 352.501 204.135, 360.505 199.444 L 365.055 196.777 371.778 197.179 L 378.500 197.580 382.760 200.430 L 387.021 203.280 389.985 209.390 L 392.949 215.500 392.974 213.456 C 392.989 212.331, 391.538 208.978, 389.750 206.005 L 386.500 200.598 381.839 198.209 L 377.178 195.821 371.545 195.598 L 365.913 195.374 362.503 196.937 M 198.500 228.753 C 188.566 234.145, 186.461 235.692, 185.154 238.561 C 183.549 242.085, 183.693 244.178, 186.082 252.045 L 188.165 258.900 185.191 263.223 C 183.555 265.600, 181.559 269.119, 180.756 271.042 L 179.295 274.539 172.897 275.852 C 164.530 277.568, 160.537 279.525, 159.139 282.595 C 157.282 286.670, 157.843 287.763, 159.852 283.984 L 161.703 280.500 165.602 279.292 C 167.746 278.628, 172.059 277.367, 175.187 276.490 L 180.875 274.894 182.573 270.447 C 183.507 268.001, 184.590 266, 184.978 266 C 185.367 266, 186.486 264.513, 187.465 262.695 L 189.245 259.390 188.175 254.945 C 187.587 252.500, 186.557 248.656, 185.887 246.403 C 185.217 244.150, 184.949 241.574, 185.292 240.680 C 186.262 238.153, 196.034 231.022, 201.962 228.516 L 207.309 226.256 209.569 226.878 C 211.929 227.527, 215.240 230.344, 220.776 236.410 L 224.051 240 233.967 240 L 243.882 240 249.138 234.029 C 252.028 230.745, 255.686 227.608, 257.267 227.057 L 260.140 226.055 264.820 228.225 C 267.394 229.419, 272.425 232.120, 276 234.227 L 282.500 238.059 279 234.968 C 275.057 231.486, 262.285 224.997, 259.395 225.007 C 256.667 225.016, 252.355 228.115, 247.498 233.558 L 243.269 238.297 233.981 238.218 L 224.693 238.138 218.537 232.037 L 212.382 225.936 208.941 225.445 L 205.500 224.953 198.500 228.753 M 281.781 242.252 C 281.990 244.041, 281.413 247.528, 280.499 250.002 C 279.584 252.476, 278.613 255.421, 278.340 256.548 L 277.844 258.595 281.551 264.819 C 285.012 270.627, 287 273.042, 287 271.435 C 287 271.060, 285.192 268.044, 282.981 264.734 L 278.963 258.716 280.879 253.595 C 283.351 246.986, 284.075 239, 282.201 239 C 281.761 239, 281.572 240.463, 281.781 242.252 M 225.031 274.862 C 222.574 275.892, 218.902 278.607, 216.872 280.894 L 213.180 285.054 212.496 290.027 C 212.120 292.762, 212.126 297.280, 212.509 300.066 L 213.206 305.132 216.899 308.816 C 218.931 310.842, 221.626 313.247, 222.888 314.159 L 225.183 315.818 233.576 315.818 L 241.970 315.818 246.087 313.053 C 250.669 309.976, 255.985 301.847, 255.931 298 L 255.896 295.500 253.866 300.781 C 251.510 306.914, 246.285 312.421, 241.244 314.085 L 237.711 315.251 231.273 314.734 L 224.836 314.217 221.168 311.301 C 219.151 309.697, 216.488 306.402, 215.250 303.980 L 213 299.576 213.022 295.038 C 213.066 285.854, 218.674 278.406, 227.756 275.467 L 233.012 273.766 237.756 274.958 C 246.614 277.185, 251.738 282.047, 254.645 290.981 L 255.790 294.500 255.880 292 C 255.930 290.625, 255.321 288.375, 254.528 287 C 253.735 285.625, 252.658 283.566, 252.134 282.425 C 251.211 280.412, 248.148 277.979, 243 275.171 C 241.625 274.420, 238.025 273.623, 235 273.397 L 229.500 272.988 225.031 274.862 M 287.384 274.490 C 288.420 275.275, 291.795 276.459, 294.884 277.123 C 303.014 278.869, 305.947 280.628, 307.692 284.805 L 309.226 288.476 308.801 296.570 L 308.376 304.663 306.120 307.831 C 304.863 309.597, 302.970 311, 301.846 311 C 300.736 311, 296.942 311.769, 293.415 312.709 L 287.002 314.418 286.360 316.459 C 286.007 317.581, 283.981 321.119, 281.859 324.321 C 277.594 330.754, 277.358 331.858, 279.403 335.813 C 281.208 339.303, 282.392 347.190, 281.522 349.930 C 280.732 352.420, 269.201 360.210, 263.697 361.972 C 258.255 363.715, 255.600 362.666, 249.492 356.360 L 244.092 350.784 234.018 350.760 L 223.945 350.736 217.559 356.868 L 211.173 363 208.736 363 C 203.514 363, 190.976 356.558, 186.750 351.704 C 184.639 349.280, 184.494 344.879, 186.403 341.187 C 187.175 339.695, 188.115 336.414, 188.493 333.898 L 189.179 329.322 187.676 327.819 C 186.007 326.150, 182 319.002, 182 317.693 C 182 316.266, 179.579 314.350, 176.982 313.721 C 175.617 313.390, 172.250 312.594, 169.500 311.952 C 164.322 310.742, 160.386 307.961, 158.954 304.500 L 158.127 302.500 158.063 304.173 C 158.029 305.094, 159.135 307.196, 160.522 308.844 L 163.045 311.842 171.086 313.579 L 179.127 315.317 181.682 320.359 C 183.088 323.133, 185.140 326.623, 186.243 328.114 L 188.248 330.826 186.124 337.818 C 184.956 341.664, 184 345.796, 184 347.001 C 184 351.104, 187.302 354.816, 194.738 359.071 L 202.143 363.307 207.142 363.788 L 212.141 364.268 218.187 358.051 L 224.234 351.833 233.867 351.824 L 243.500 351.815 248 356.768 C 253.280 362.579, 255.674 364, 260.184 364 L 263.500 364 271.879 359.267 C 276.488 356.664, 280.929 353.512, 281.747 352.263 C 283.792 349.143, 283.530 343.491, 281.031 336.814 L 278.932 331.201 281.865 326.851 C 283.479 324.458, 285.595 320.829, 286.567 318.786 L 288.336 315.072 293.918 313.991 C 296.988 313.397, 301.022 312.368, 302.883 311.705 L 306.265 310.500 308.133 307.016 L 310 303.531 310 295.233 L 310 286.936 308.579 283.534 C 306.880 279.468, 303.606 277.613, 295.213 275.962 C 291.769 275.285, 288.711 274.341, 288.417 273.865 C 288.123 273.389, 287.346 273.014, 286.691 273.032 C 286.036 273.049, 286.348 273.706, 287.384 274.490 M 73.821 411.373 C 65.076 413.769, 59.096 420.145, 57.056 429.248 L 56.007 433.933 57.095 439.009 C 58.503 445.572, 63.263 451.745, 69.321 454.862 L 74.123 457.333 80 457.333 L 85.877 457.333 90.679 454.862 C 96.723 451.752, 101.498 445.570, 102.897 439.043 L 103.979 434 102.897 428.957 C 100.138 416.091, 86.563 407.881, 73.821 411.373" stroke="none" fill="#f46c04" fill-rule="evenodd"/></svg>