<?xml version="1.0" encoding="UTF-8" standalone="no"?>
<!-- Created with Inkscape (http://www.inkscape.org/) -->

<svg
   xmlns:dc="http://purl.org/dc/elements/1.1/"
   xmlns:cc="http://creativecommons.org/ns#"
   xmlns:rdf="http://www.w3.org/1999/02/22-rdf-syntax-ns#"
   xmlns:svg="http://www.w3.org/2000/svg"
   xmlns="http://www.w3.org/2000/svg"
   xmlns:sodipodi="http://sodipodi.sourceforge.net/DTD/sodipodi-0.dtd"
   xmlns:inkscape="http://www.inkscape.org/namespaces/inkscape"
   width="1440"
   height="1440"
   id="svg2"
   version="1.1"
   inkscape:version="0.91 r13725"
   sodipodi:docname="Demo3D.svg"
   inkscape:export-filename="C:\Users\Demo\Pictures\Pictures for Oculus\VRLandscape.png"
   inkscape:export-xdpi="90"
   inkscape:export-ydpi="90">
  <defs
     id="defs4">
    <clipPath
       id="clipPath2999"
       clipPathUnits="userSpaceOnUse">
      <path
         id="path3001"
         d="m 0,841.89 595.28,0 L 595.28,0 0,0 0,841.89 Z"
         inkscape:connector-curvature="0" />
    </clipPath>
  </defs>
  <sodipodi:namedview
     id="base"
     pagecolor="#ffffff"
     bordercolor="#666666"
     borderopacity="1.0"
     inkscape:pageopacity="0.0"
     inkscape:pageshadow="2"
     inkscape:zoom="6.2932503"
     inkscape:cx="1419.9487"
     inkscape:cy="5.314721"
     inkscape:document-units="px"
     inkscape:current-layer="layer1"
     showgrid="true"
     fit-margin-top="2"
     fit-margin-left="2"
     fit-margin-right="2"
     fit-margin-bottom="2"
     inkscape:window-width="1920"
     inkscape:window-height="1017"
     inkscape:window-x="-8"
     inkscape:window-y="-8"
     inkscape:window-maximized="1"
     units="px"
     inkscape:snap-bbox="true"
     inkscape:bbox-nodes="true">
    <inkscape:grid
       type="xygrid"
       id="grid3341"
       empspacing="4" />
  </sodipodi:namedview>
  <metadata
     id="metadata7">
    <rdf:RDF>
      <cc:Work
         rdf:about="">
        <dc:format>image/svg+xml</dc:format>
        <dc:type
           rdf:resource="http://purl.org/dc/dcmitype/StillImage" />
        <dc:title></dc:title>
      </cc:Work>
    </rdf:RDF>
  </metadata>
  <g
     inkscape:label="Layer 1"
     inkscape:groupmode="layer"
     id="layer1"
     transform="translate(-292.13394,857.83367)">
    <g
       id="g3343"
       transform="matrix(8.3064804,0,0,8.3064804,-2119.0839,-4252.9742)">
      <g
         transform="matrix(1.25,0,0,-1.25,457.07331,505.90335)"
         id="g3003">
        <path
           id="path3005"
           style="fill:#0074ac;fill-opacity:1;fill-rule:nonzero;stroke:none"
           d="m 0,0 0,15.242 -9.528,2.729 c -1.452,7.398 -4.388,14.263 -8.492,20.27 l 4.863,8.765 -10.778,10.778 -8.832,-4.9 c -5.981,4.021 -12.8,6.886 -20.137,8.297 l -2.795,9.76 -15.242,0 -2.794,-9.76 c -7.337,-1.412 -14.156,-4.276 -20.137,-8.298 l -8.833,4.901 -10.778,-10.778 4.864,-8.766 c -4.103,-6.007 -7.039,-12.871 -8.491,-20.269 l -9.529,-2.729 0,-15.242 9.428,-2.699 c 1.393,-7.515 4.304,-14.497 8.426,-20.599 l -4.697,-8.465 10.778,-10.778 8.404,4.663 c 6.127,-4.205 13.151,-7.19 20.726,-8.624 l 2.633,-9.196 15.242,0 2.633,9.196 c 7.576,1.434 14.6,4.419 20.727,8.624 l 8.404,-4.663 10.778,10.778 -4.697,8.465 c 4.123,6.102 7.034,13.084 8.427,20.599 L 0,0 Z"
           inkscape:connector-curvature="0" />
      </g>
      <g
         transform="matrix(1.25,0,0,-1.25,371.89519,570.8851)"
         id="g3007">
        <path
           id="path3009"
           style="fill:#f89734;fill-opacity:1;fill-rule:nonzero;stroke:none"
           d="m 0,0 9.645,0 1.863,6.506 c 0.387,1.349 1.5,2.365 2.879,2.626 6.968,1.319 13.467,4.022 19.316,8.036 1.162,0.796 2.671,0.868 3.902,0.185 l 5.956,-3.305 6.82,6.82 -3.338,6.018 c -0.679,1.222 -0.612,2.721 0.17,3.879 3.927,5.813 6.568,12.273 7.851,19.198 0.257,1.385 1.275,2.505 2.629,2.893 l 6.737,1.928 0,9.645 -6.837,1.958 c -1.341,0.384 -2.354,1.486 -2.621,2.854 -1.336,6.801 -3.998,13.157 -7.915,18.891 -0.792,1.16 -0.863,2.668 -0.181,3.896 l 3.505,6.318 -6.819,6.82 -6.386,-3.543 c -1.219,-0.677 -2.715,-0.612 -3.872,0.165 -5.699,3.832 -12.012,6.433 -18.767,7.733 -1.374,0.264 -2.482,1.278 -2.868,2.624 l -2.024,7.069 -9.645,0 -2.023,-7.069 c -0.386,-1.345 -1.494,-2.36 -2.868,-2.624 -6.755,-1.3 -13.068,-3.901 -18.767,-7.733 -1.157,-0.778 -2.652,-0.842 -3.873,-0.165 l -6.385,3.543 -6.82,-6.82 3.506,-6.319 c 0.682,-1.228 0.612,-2.736 -0.181,-3.896 -3.917,-5.733 -6.579,-12.089 -7.914,-18.89 -0.269,-1.368 -1.281,-2.47 -2.621,-2.854 l -6.838,-1.958 0,-9.645 6.737,-1.928 c 1.354,-0.388 2.372,-1.508 2.629,-2.893 1.284,-6.926 3.926,-13.385 7.852,-19.197 0.782,-1.159 0.848,-2.658 0.17,-3.88 l -3.339,-6.018 6.819,-6.82 5.957,3.306 c 1.23,0.683 2.742,0.611 3.902,-0.186 5.849,-4.014 12.349,-6.718 19.316,-8.036 1.379,-0.261 2.493,-1.278 2.879,-2.627 L 0,0 Z m 12.443,-7.425 -15.242,0 c -1.657,0 -3.113,1.098 -3.569,2.691 L -8.384,2.31 C -14.765,3.777 -20.78,6.279 -26.32,9.771 l -6.44,-3.573 c -1.448,-0.804 -3.256,-0.552 -4.427,0.621 l -10.778,10.778 c -1.172,1.172 -1.425,2.978 -0.621,4.426 l 3.616,6.518 c -3.409,5.498 -5.851,11.466 -7.281,17.795 l -7.267,2.08 c -1.593,0.456 -2.691,1.913 -2.691,3.569 l 0,15.243 c 0,1.657 1.098,3.113 2.69,3.569 l 7.393,2.117 c 1.47,6.204 3.923,12.062 7.316,17.47 l -3.776,6.806 c -0.805,1.449 -0.551,3.255 0.621,4.427 l 10.778,10.778 c 1.171,1.172 2.977,1.425 4.426,0.621 l 6.889,-3.822 c 5.366,3.312 11.176,5.706 17.324,7.139 l 2.18,7.615 c 0.456,1.594 1.912,2.691 3.569,2.691 l 15.242,0 c 1.658,0 3.114,-1.097 3.57,-2.69 l 2.18,-7.616 c 6.15,-1.433 11.959,-3.827 17.325,-7.139 l 6.889,3.822 c 1.447,0.804 3.255,0.551 4.426,-0.621 L 57.61,101.617 c 1.172,-1.172 1.425,-2.978 0.621,-4.427 l -3.775,-6.805 c 3.393,-5.408 5.846,-11.267 7.315,-17.471 l 7.393,-2.117 c 1.593,-0.456 2.691,-1.912 2.691,-3.569 l 0,-15.243 c 0,-1.656 -1.098,-3.113 -2.691,-3.569 l -7.267,-2.08 C 60.468,40.007 58.026,34.039 54.616,28.541 l 3.615,-6.518 c 0.804,-1.448 0.551,-3.254 -0.621,-4.426 L 46.832,6.819 C 45.66,5.647 43.854,5.395 42.405,6.198 L 35.967,9.771 C 30.427,6.279 24.411,3.777 18.03,2.31 L 16.013,-4.734 C 15.557,-6.327 14.1,-7.425 12.443,-7.425"
           inkscape:connector-curvature="0" />
      </g>
      <g
         transform="matrix(1.25,0,0,-1.25,377.91944,541.45585)"
         id="g3011">
        <path
           id="path3013"
           style="fill:#ffffff;fill-opacity:1;fill-rule:nonzero;stroke:none"
           d="M 0,0 C -0.962,0 -1.923,0.249 -2.784,0.746 L -29.307,16.06 c -1.722,0.994 -2.784,2.833 -2.784,4.822 l 0,30.627 c 0,1.99 1.062,3.828 2.784,4.823 l 26.523,15.313 c 1.722,0.995 3.846,0.995 5.568,0.001 L 29.313,56.333 c 1.734,-1.001 2.797,-2.855 2.785,-4.856 -0.012,-2.002 -1.097,-3.843 -2.842,-4.823 L 5.569,33.352 l 0,-6.394 c 0,-3.076 -2.494,-5.569 -5.569,-5.569 -3.075,0 -5.569,2.493 -5.569,5.569 l 0,9.653 c 0,2.014 1.087,3.87 2.842,4.856 L 15.274,51.576 0,60.392 -20.953,48.294 l 0,-24.197 20.946,-12.094 23.741,13.773 c 2.661,1.543 6.068,0.64 7.613,-2.022 1.543,-2.66 0.637,-6.068 -2.023,-7.611 L 2.795,0.752 C 1.931,0.25 0.965,0 0,0"
           inkscape:connector-curvature="0" />
      </g>
    </g>
  </g>
</svg>
