<svg viewBox="24.5 32.5 104.5 103" xmlns:xlink="http://www.w3.org/1999/xlink" xmlns="http://www.w3.org/2000/svg" id="Content" style="max-height: 500px" width="104.5" height="103">
  <defs>
    <style>
      .cls-1 {
        fill: url(#FactoryTalk_gradient_45_);
      }

      .cls-2 {
        fill: #00aeef;
      }

      .cls-3 {
        fill: #6d6e71;
      }
    </style>
    <linearGradient gradientUnits="userSpaceOnUse" y2="47.53" x2="105.54" y1="105.68" x1="47.39" data-name="FactoryTalk gradient 45°" id="FactoryTalk_gradient_45_">
      <stop stop-color="#003e7e" offset="0"/>
      <stop stop-color="#00599a" offset="0.16"/>
      <stop stop-color="#0087c8" offset="0.45"/>
      <stop stop-color="#00a3e4" offset="0.67"/>
      <stop stop-color="#00aeef" offset="0.8"/>
    </linearGradient>
  </defs>
  <title>2019_Logo</title>
  <path d="M115.13,57.11,96.57,38.58a10.48,10.48,0,0,0-7.4-3.06H63.76a10.46,10.46,0,0,0-7.4,3.06L37.8,57.11a8.46,8.46,0,0,0-2.47,6V89.25a10.54,10.54,0,0,0,3.09,7.46l17.94,17.92a10.45,10.45,0,0,0,7.39,3.06H77l0,14.86a.62.62,0,0,0,1.07.44l37.05-36.9a8.42,8.42,0,0,0,2.48-6v-27A8.46,8.46,0,0,0,115.13,57.11Zm-11.44,9.41a.88.88,0,0,1-.93.93H94.12a.32.32,0,0,0-.37.37V95.33a.88.88,0,0,1-.26.67.9.9,0,0,1-.67.26H86.09a.9.9,0,0,1-.67-.26.88.88,0,0,1-.26-.67V67.82a.32.32,0,0,0-.36-.37l-21.65,0a.32.32,0,0,0-.36.36v6.16a.32.32,0,0,0,.36.36h10a.94.94,0,0,1,.68.26.92.92,0,0,1,.26.67v5.43a.89.89,0,0,1-.94.93h-10a.32.32,0,0,0-.36.36v13.4a.89.89,0,0,1-.93.93H55.13a.89.89,0,0,1-.94-.93V61a.9.9,0,0,1,.26-.67.93.93,0,0,1,.68-.26h47.63a.94.94,0,0,1,.68.26.9.9,0,0,1,.25.67Z" class="cls-1"/>
  <path d="M176.45,54H148.94a.34.34,0,0,0-.38.38V72.9a.33.33,0,0,0,.38.37h19.17a.88.88,0,0,1,1,1V77a.87.87,0,0,1-1,1H148.94a.34.34,0,0,0-.38.38v23a.87.87,0,0,1-1,1h-3.41a.88.88,0,0,1-1-1V50.24a.88.88,0,0,1,1-1h32.28a.88.88,0,0,1,1,1V53a.87.87,0,0,1-1,1" class="cls-2"/>
  <path d="M193.91,96.05a6.94,6.94,0,0,0,3.3-6V84.19a.33.33,0,0,0-.38-.38h-8a14.16,14.16,0,0,0-8,2,6.5,6.5,0,0,0-3,5.69,5.83,5.83,0,0,0,2.35,5,10,10,0,0,0,6,1.7,13.46,13.46,0,0,0,7.76-2.23m4.93-29.22a12,12,0,0,1,3.75,9.25v25.23a.88.88,0,0,1-1,1h-3.41a.87.87,0,0,1-1-1V98.59a.31.31,0,0,0-.15-.31c-.1,0-.2,0-.31.15a13,13,0,0,1-5.11,3.34,19.13,19.13,0,0,1-6.71,1.13,14.3,14.3,0,0,1-8.9-2.72q-3.6-2.73-3.6-8.34a10.88,10.88,0,0,1,4.13-9q4.13-3.3,11.48-3.3h8.79a.33.33,0,0,0,.38-.37V76.38a8.42,8.42,0,0,0-2.16-6.1q-2.16-2.23-6.71-2.23a11.18,11.18,0,0,0-5.83,1.36,6,6,0,0,0-2.88,3.79.9.9,0,0,1-1.14.76l-3.71-.46c-.66-.1-1-.38-.91-.83a10,10,0,0,1,4.66-6.74,17.3,17.3,0,0,1,9.74-2.58q6.81,0,10.57,3.48" class="cls-2"/>
  <path d="M213.23,100.06a14.23,14.23,0,0,1-5.34-7.69,35.08,35.08,0,0,1-1-9.4,37.64,37.64,0,0,1,1-9.24,13.8,13.8,0,0,1,5.31-7.54,15.58,15.58,0,0,1,9.39-2.84,16.45,16.45,0,0,1,9.59,2.8,12.72,12.72,0,0,1,5.26,7,15.27,15.27,0,0,1,.46,2v.15a.94.94,0,0,1-.91,1l-3.33.37h-.23c-.46,0-.76-.27-.91-.83a4.26,4.26,0,0,0-.15-.91A8.5,8.5,0,0,0,229,70.06a10.35,10.35,0,0,0-6.44-2,9.86,9.86,0,0,0-6.32,2A9.12,9.12,0,0,0,213,75.4a34.74,34.74,0,0,0-.68,7.65,33.93,33.93,0,0,0,.68,7.73,9.18,9.18,0,0,0,3.3,5.42,9.86,9.86,0,0,0,6.32,2,10.64,10.64,0,0,0,6.4-1.93,7.82,7.82,0,0,0,3.3-4.88.86.86,0,0,0,.08-.38l.07-.08c.05-.65.43-.93,1.14-.83l3.26.53a1,1,0,0,1,.91,1.13l-.31,1.29a12,12,0,0,1-5.22,7.13,17,17,0,0,1-9.63,2.72,15.47,15.47,0,0,1-9.36-2.84" class="cls-2"/>
  <path d="M258.13,68.43h-8.26a.33.33,0,0,0-.38.37V90.93c0,2.42.55,4.13,1.63,5.12s2.79,1.47,5.12,1.47h1.66a.88.88,0,0,1,1,1v2.65a1,1,0,0,1-1,1.06h-2.57q-5.46,0-8.26-2c-1.87-1.37-2.8-3.89-2.8-7.58V68.8c0-.25-.13-.37-.39-.37h-4.31a.88.88,0,0,1-1-1v-2.5a.88.88,0,0,1,1-1h4.31c.26,0,.39-.12.39-.37V55.09a.87.87,0,0,1,1-1h3.26a.87.87,0,0,1,1,1v8.49a.33.33,0,0,0,.38.37h8.26a.88.88,0,0,1,1,1v2.5a.88.88,0,0,1-1,1" class="cls-2"/>
  <path d="M282.46,96.2a9.89,9.89,0,0,0,3.48-5.42,34.27,34.27,0,0,0,.61-7.65,32.53,32.53,0,0,0-.61-7.66,9.33,9.33,0,0,0-3.45-5.41,10.17,10.17,0,0,0-6.4-2,9.65,9.65,0,0,0-9.7,7.42,33.25,33.25,0,0,0-.6,7.66,33.14,33.14,0,0,0,.6,7.65,9.48,9.48,0,0,0,3.45,5.42,10.18,10.18,0,0,0,6.4,2,9.8,9.8,0,0,0,6.22-2m-15.65,3.9a14.43,14.43,0,0,1-5.42-7.73,32.92,32.92,0,0,1-1.06-9.32,34.86,34.86,0,0,1,1-9.24,14.42,14.42,0,0,1,5.41-7.66,15.85,15.85,0,0,1,9.51-2.8,15.6,15.6,0,0,1,9.36,2.8,14.07,14.07,0,0,1,5.34,7.58A33.9,33.9,0,0,1,292,83.05a32.92,32.92,0,0,1-1.06,9.32,14.41,14.41,0,0,1-5.41,7.73,15.51,15.51,0,0,1-9.29,2.8,15.71,15.71,0,0,1-9.43-2.8" class="cls-2"/>
  <path d="M346,64.26a.88.88,0,0,0-.75-.3h-3.64a1,1,0,0,0-1.06.83L331,94.49c-.05.2-.13.31-.23.31s-.17-.11-.22-.31l-9.78-29.7a1,1,0,0,0-1.13-.83h-.42a44,44,0,0,0-6.4-.38,10.54,10.54,0,0,0-5.65,1.51,11.92,11.92,0,0,0-4.05,4.25c-.11.15-.19.21-.27.19s-.11-.14-.11-.35V64.94a.87.87,0,0,0-1-1h-3.41a.86.86,0,0,0-1,1v36.37a.87.87,0,0,0,1,1h3.41a.88.88,0,0,0,1-1V79.19a9.9,9.9,0,0,1,2.57-7,9,9,0,0,1,6.52-2.92,23.68,23.68,0,0,1,5,.49l11.12,32.32a.71.71,0,0,1,0,.46,36.12,36.12,0,0,1-2.54,6.51,7,7,0,0,1-2.8,3,10.37,10.37,0,0,1-4.59.83h-.53c-.35,0-.53.33-.53,1v2.65c0,.65.18,1,.53,1H318a18.63,18.63,0,0,0,6.71-1,8.45,8.45,0,0,0,4-3.37,36.93,36.93,0,0,0,3.41-7.5L346,65.09A.89.89,0,0,0,346,64.26Z" class="cls-2"/>
  <path d="M381.61,50.54v6.67a1.14,1.14,0,0,1-1.29,1.29H367.21a.4.4,0,0,0-.46.45V101a1.14,1.14,0,0,1-1.28,1.29h-8.11a1.14,1.14,0,0,1-1.29-1.29V59a.4.4,0,0,0-.46-.45H342.88a1.14,1.14,0,0,1-1.28-1.29V50.54a1.14,1.14,0,0,1,1.28-1.29h37.44a1.14,1.14,0,0,1,1.29,1.29" class="cls-2"/>
  <path d="M394.56,93.2a5.38,5.38,0,0,0,2.28-4.47V86.08a.4.4,0,0,0-.46-.45H391a9.82,9.82,0,0,0-5.38,1.28,4.13,4.13,0,0,0-2,3.64,3.87,3.87,0,0,0,1.48,3.22A6,6,0,0,0,389,95a8.77,8.77,0,0,0,5.53-1.75m4.78-28.75a14.48,14.48,0,0,1,6,4.66,10.91,10.91,0,0,1,2.16,6.59V101a1.14,1.14,0,0,1-1.29,1.29h-8.11a1.14,1.14,0,0,1-1.28-1.29V99.19c0-.2,0-.31-.16-.34s-.22,0-.37.19q-3.49,3.85-10.39,3.86c-3.89,0-7-1-9.39-2.88S373,95.28,373,91.54a10.87,10.87,0,0,1,4.09-9.06q4.1-3.21,11.67-3.22h7.65a.4.4,0,0,0,.46-.45V77.22a5,5,0,0,0-1.56-3.91,6.53,6.53,0,0,0-4.51-1.4,8.15,8.15,0,0,0-3.75.76,4,4,0,0,0-2,2.12,1.44,1.44,0,0,1-1.52,1l-8.41-1.06a2.08,2.08,0,0,1-.95-.34.73.73,0,0,1-.27-.73,10.13,10.13,0,0,1,2.62-5.6,14.89,14.89,0,0,1,5.91-3.91,22.82,22.82,0,0,1,8.15-1.4,21.54,21.54,0,0,1,8.79,1.71" class="cls-2"/>
  <path d="M412.82,101V50.54a1.14,1.14,0,0,1,1.29-1.29h8.11a1.14,1.14,0,0,1,1.29,1.29V101a1.14,1.14,0,0,1-1.29,1.29h-8.11a1.14,1.14,0,0,1-1.29-1.29" class="cls-2"/>
  <path d="M429.34,101V50.54a1.14,1.14,0,0,1,1.29-1.29h8.11A1.14,1.14,0,0,1,440,50.54v25c0,.2.06.31.19.34s.24,0,.34-.19l10.08-11.59a2.21,2.21,0,0,1,1.59-.76h9.17a1.52,1.52,0,0,1,.83.19.64.64,0,0,1,.3.57,1.3,1.3,0,0,1-.3.83l-9.32,11.67a.53.53,0,0,0-.08.61L464,100.78l.15.61c0,.61-.37.91-1.13.91h-8.56a1.56,1.56,0,0,1-1.52-1L445.56,84c-.15-.3-.35-.33-.61-.08l-4.69,6a.88.88,0,0,0-.23.53V101a1.14,1.14,0,0,1-1.29,1.29h-8.11a1.14,1.14,0,0,1-1.29-1.29" class="cls-2"/>
  <g>
    <path d="M204.46,143.37a9.66,9.66,0,0,1-.31,2.79,4,4,0,0,1-1.44,2.15,4.11,4.11,0,0,1-2.58.79,3.63,3.63,0,0,1-1.59-.35,3.2,3.2,0,0,1-1.2-1,.09.09,0,0,0-.09,0,.08.08,0,0,0,0,.08v.83c0,.19-.09.29-.28.29h-1a.26.26,0,0,1-.29-.29V133.83c0-.19.1-.28.29-.28h1a.24.24,0,0,1,.28.28v5.08a.13.13,0,0,0,0,.09s.06,0,.09-.05a3.3,3.3,0,0,1,1.21-1,3.76,3.76,0,0,1,1.58-.34,4.19,4.19,0,0,1,2.62.81,4.1,4.1,0,0,1,1.45,2.2A10.74,10.74,0,0,1,204.46,143.37ZM202.81,145a11.11,11.11,0,0,0,.09-1.61,9.06,9.06,0,0,0-.12-1.68,3.89,3.89,0,0,0-.38-1.09,2.46,2.46,0,0,0-.93-1.16A2.54,2.54,0,0,0,200,139a2.33,2.33,0,0,0-1.44.45,2.55,2.55,0,0,0-.87,1.19,3.72,3.72,0,0,0-.31,1.07,15.26,15.26,0,0,0,0,3.31,4,4,0,0,0,.29,1,2.71,2.71,0,0,0,.88,1.23,2.29,2.29,0,0,0,1.47.46,2.73,2.73,0,0,0,1.59-.46,2.45,2.45,0,0,0,.94-1.25A4,4,0,0,0,202.81,145Z" class="cls-3"/>
    <path d="M206.7,153v-.76c0-.19.05-.29.16-.29H207a3,3,0,0,0,1.33-.24,2.06,2.06,0,0,0,.81-.86,10.9,10.9,0,0,0,.74-1.89.28.28,0,0,0,0-.13l-3.69-10.72a.2.2,0,0,1,0-.11.19.19,0,0,1,.08-.15.25.25,0,0,1,.19-.07h1a.3.3,0,0,1,.33.24l2.83,8.61c0,.06,0,.09.07.09s.05,0,.07-.09l2.76-8.61a.3.3,0,0,1,.31-.24h1.06a.27.27,0,0,1,.22.09.28.28,0,0,1,0,.24l-4,11.75a12,12,0,0,1-1,2.18,2.53,2.53,0,0,1-1.16,1,5.53,5.53,0,0,1-1.94.27h-.15C206.75,153.32,206.7,153.22,206.7,153Z" class="cls-3"/>
    <path d="M229.55,148.64l-2.7-6a.15.15,0,0,0-.16-.1h-2a.12.12,0,0,0-.13.13v5.86a.33.33,0,0,1-.37.38h-2.35a.34.34,0,0,1-.38-.38V133.9a.33.33,0,0,1,.38-.37H228a5,5,0,0,1,2.47.58,4.11,4.11,0,0,1,1.65,1.63,4.92,4.92,0,0,1,.58,2.42,4.44,4.44,0,0,1-.74,2.57,4,4,0,0,1-2.07,1.52.16.16,0,0,0-.09.07.12.12,0,0,0,0,.1l2.9,6.07a.28.28,0,0,1,.07.19.2.2,0,0,1-.09.18.43.43,0,0,1-.24.07H230A.48.48,0,0,1,229.55,148.64Zm-5-12.3V140a.12.12,0,0,0,.13.13h2.86a2.13,2.13,0,0,0,1.51-.54,1.86,1.86,0,0,0,.58-1.41,1.93,1.93,0,0,0-.58-1.44,2.06,2.06,0,0,0-1.51-.56h-2.86A.12.12,0,0,0,224.56,136.34Z" class="cls-3"/>
    <path d="M237.4,148.46a5,5,0,0,1-2-2,5.76,5.76,0,0,1-.72-2.91v-4.7a5.65,5.65,0,0,1,.72-2.88,5,5,0,0,1,2-1.95,6.38,6.38,0,0,1,3-.69,6.44,6.44,0,0,1,3.05.69,5,5,0,0,1,2,1.95,5.65,5.65,0,0,1,.72,2.88v4.7a5.83,5.83,0,0,1-.72,2.92,5,5,0,0,1-2,2,6.44,6.44,0,0,1-3.05.69A6.27,6.27,0,0,1,237.4,148.46Zm5-2.72a2.79,2.79,0,0,0,.75-2v-4.84a2.88,2.88,0,0,0-.74-2.05,2.58,2.58,0,0,0-2-.78,2.55,2.55,0,0,0-1.94.78,2.88,2.88,0,0,0-.74,2.05v4.84a2.82,2.82,0,0,0,.74,2,2.58,2.58,0,0,0,1.94.77A2.62,2.62,0,0,0,242.38,145.74Z" class="cls-3"/>
    <path d="M251,148.43a4.84,4.84,0,0,1-2-1.88,5.4,5.4,0,0,1-.7-2.79v-5.07a5.4,5.4,0,0,1,.7-2.79,4.76,4.76,0,0,1,2-1.87,6.57,6.57,0,0,1,3-.66,6.7,6.7,0,0,1,3,.63,4.8,4.8,0,0,1,2,1.78,5,5,0,0,1,.71,2.67c0,.13-.12.21-.35.24l-2.35.15h-.09c-.2,0-.31,0-.31-.11v-.13a2.49,2.49,0,0,0-.71-1.87A2.56,2.56,0,0,0,254,136a2.59,2.59,0,0,0-1.9.7,2.49,2.49,0,0,0-.71,1.87v5.29a2.46,2.46,0,0,0,.71,1.85,2.59,2.59,0,0,0,1.9.7,2.56,2.56,0,0,0,1.88-.7,2.46,2.46,0,0,0,.71-1.85.24.24,0,0,1,.1-.18.4.4,0,0,1,.28-.06l2.35.11c.25,0,.37.07.37.11V144a5.06,5.06,0,0,1-.71,2.68,4.78,4.78,0,0,1-2,1.8,6.57,6.57,0,0,1-3,.64A6.45,6.45,0,0,1,251,148.43Z" class="cls-3"/>
    <path d="M262,148.55V133.92a.33.33,0,0,1,.38-.37h2.35a.32.32,0,0,1,.37.37v6a.11.11,0,0,0,.06.11s.06,0,.09-.05l5-6.21a.53.53,0,0,1,.46-.22h2.66a.48.48,0,0,1,.24,0,.19.19,0,0,1,.09.17.41.41,0,0,1-.11.24l-4.79,6.11s0,.1,0,.17l5.08,8.2a.33.33,0,0,1,.06.19c0,.17-.1.25-.3.25h-2.66a.48.48,0,0,1-.44-.25l-3.85-6.23a.08.08,0,0,0-.08-.07.12.12,0,0,0-.11.07l-1.34,1.71a.25.25,0,0,0-.07.15v4.24a.33.33,0,0,1-.37.38h-2.35A.34.34,0,0,1,262,148.55Z" class="cls-3"/>
    <path d="M278.65,148.6,274.78,134a.25.25,0,0,1,0-.1c0-.21.12-.31.35-.31h2.51a.36.36,0,0,1,.39.33l2.07,8.76q0,.09.09.09s.07,0,.08-.09l2-8.76a.37.37,0,0,1,.4-.33h2.48a.39.39,0,0,1,.42.33l2.15,8.76c0,.06,0,.09.08.09s.06,0,.07-.09l2-8.76a.37.37,0,0,1,.4-.33h2.39a.32.32,0,0,1,.28.12.36.36,0,0,1,0,.29l-3.54,14.64a.38.38,0,0,1-.42.33h-2.41a.38.38,0,0,1-.42-.33l-2.2-9.34q0-.09-.09-.09s-.07,0-.08.09l-2.05,9.34a.36.36,0,0,1-.39.33h-2.24A.38.38,0,0,1,278.65,148.6Z" class="cls-3"/>
    <path d="M304.84,136.21h-7.08c-.09,0-.13,0-.13.13v3.36c0,.09,0,.13.13.13h4.59a.34.34,0,0,1,.38.37v1.92a.34.34,0,0,1-.38.37h-4.59c-.09,0-.13,0-.13.13v3.52a.12.12,0,0,0,.13.13h7.08a.33.33,0,0,1,.37.37v1.91a.34.34,0,0,1-.37.38h-9.93a.34.34,0,0,1-.38-.38V133.92a.33.33,0,0,1,.38-.37h9.93a.33.33,0,0,1,.37.37v1.91A.34.34,0,0,1,304.84,136.21Z" class="cls-3"/>
    <path d="M307.36,148.55V133.92a.33.33,0,0,1,.38-.37h2.35a.32.32,0,0,1,.37.37v12.22a.12.12,0,0,0,.13.13h7.05a.33.33,0,0,1,.38.37v1.91a.34.34,0,0,1-.38.38h-9.9A.34.34,0,0,1,307.36,148.55Z" class="cls-3"/>
    <path d="M319.93,148.55V133.92a.32.32,0,0,1,.37-.37h2.35a.33.33,0,0,1,.38.37v12.22a.12.12,0,0,0,.13.13h7a.32.32,0,0,1,.37.37v1.91a.33.33,0,0,1-.37.38H320.3A.33.33,0,0,1,319.93,148.55Z" class="cls-3"/>
    <path d="M346.36,148.62l-.62-2a.12.12,0,0,0-.13-.11h-5.38c-.08,0-.12,0-.13.11l-.62,2a.42.42,0,0,1-.42.31h-2.54a.33.33,0,0,1-.29-.12.29.29,0,0,1,0-.3l4.68-14.65a.4.4,0,0,1,.41-.31h3.23a.41.41,0,0,1,.42.31l4.68,14.65a.24.24,0,0,1,0,.13.29.29,0,0,1-.08.21.37.37,0,0,1-.25.08h-2.55A.41.41,0,0,1,346.36,148.62ZM341,144.07h3.88c.09,0,.13,0,.11-.15l-2-6.7c0-.06,0-.09-.08-.09s-.07,0-.1.09l-1.95,6.7C340.85,144,340.89,144.07,341,144.07Z" class="cls-3"/>
    <path d="M353.93,148.44a4.84,4.84,0,0,1-2-1.85,5.26,5.26,0,0,1-.72-2.76v-9.91a.33.33,0,0,1,.38-.37h2.35a.32.32,0,0,1,.37.37v9.93a2.44,2.44,0,0,0,2.59,2.59,2.46,2.46,0,0,0,2.6-2.59v-9.93a.32.32,0,0,1,.37-.37h2.35a.32.32,0,0,1,.37.37v9.91a5.25,5.25,0,0,1-.71,2.76,4.9,4.9,0,0,1-2,1.85,7,7,0,0,1-5.95,0Z" class="cls-3"/>
    <path d="M376,133.92v1.93a.34.34,0,0,1-.38.38h-3.8c-.09,0-.13,0-.13.13v12.19a.34.34,0,0,1-.37.38H369a.34.34,0,0,1-.38-.38V136.36c0-.09,0-.13-.13-.13h-3.69a.33.33,0,0,1-.37-.38v-1.93a.32.32,0,0,1,.37-.37h10.85A.33.33,0,0,1,376,133.92Z" class="cls-3"/>
    <path d="M379.83,148.46a5.07,5.07,0,0,1-2-2,5.76,5.76,0,0,1-.72-2.91v-4.7a5.65,5.65,0,0,1,.72-2.88,5.11,5.11,0,0,1,2-1.95,7,7,0,0,1,6.06,0,5,5,0,0,1,2,1.95,5.56,5.56,0,0,1,.73,2.88v4.7a5.73,5.73,0,0,1-.73,2.92,5,5,0,0,1-2,2,6.43,6.43,0,0,1-3,.69A6.27,6.27,0,0,1,379.83,148.46Zm5-2.72a2.79,2.79,0,0,0,.75-2v-4.84a2.88,2.88,0,0,0-.74-2.05,2.84,2.84,0,0,0-3.91,0,2.88,2.88,0,0,0-.73,2.05v4.84a2.82,2.82,0,0,0,.73,2,2.85,2.85,0,0,0,3.9,0Z" class="cls-3"/>
    <path d="M391,148.55V133.92a.33.33,0,0,1,.38-.37h2.35a.5.5,0,0,1,.44.24l3.18,5.14s.06.07.1.07.06,0,.08-.07l3.23-5.14a.49.49,0,0,1,.44-.24h2.35a.32.32,0,0,1,.37.37v14.63a.33.33,0,0,1-.37.38h-2.35a.34.34,0,0,1-.38-.38V139a.12.12,0,0,0-.05-.11s-.07,0-.1.07l-2.22,3.62a.49.49,0,0,1-.44.24h-1.12a.49.49,0,0,1-.44-.24l-2.2-3.62c0-.06-.06-.08-.1-.07a.12.12,0,0,0-.05.11v9.51a.33.33,0,0,1-.37.38h-2.35A.34.34,0,0,1,391,148.55Z" class="cls-3"/>
    <path d="M416.11,148.62l-.62-2c0-.08-.05-.11-.13-.11H410a.12.12,0,0,0-.13.11l-.62,2a.41.41,0,0,1-.41.31h-2.55a.34.34,0,0,1-.29-.12.31.31,0,0,1,0-.3l4.68-14.65a.41.41,0,0,1,.42-.31h3.23a.4.4,0,0,1,.41.31l4.68,14.65a.24.24,0,0,1,0,.13.25.25,0,0,1-.08.21.36.36,0,0,1-.24.08h-2.55A.42.42,0,0,1,416.11,148.62Zm-5.38-4.55h3.88q.13,0,.12-.15l-2-6.7c0-.06,0-.09-.08-.09s-.07,0-.1.09l-1.95,6.7C410.6,144,410.64,144.07,410.73,144.07Z" class="cls-3"/>
    <path d="M430.37,133.92v1.93a.34.34,0,0,1-.38.38h-3.8c-.09,0-.13,0-.13.13v12.19a.33.33,0,0,1-.37.38h-2.35a.34.34,0,0,1-.38-.38V136.36c0-.09,0-.13-.13-.13h-3.69a.33.33,0,0,1-.37-.38v-1.93a.32.32,0,0,1,.37-.37H430A.33.33,0,0,1,430.37,133.92Z" class="cls-3"/>
    <path d="M432.34,148.55V133.92a.33.33,0,0,1,.38-.37h2.35a.32.32,0,0,1,.37.37v14.63a.33.33,0,0,1-.37.38h-2.35A.34.34,0,0,1,432.34,148.55Z" class="cls-3"/>
    <path d="M440.57,148.46a5,5,0,0,1-2-2,5.77,5.77,0,0,1-.73-2.91v-4.7a5.65,5.65,0,0,1,.73-2.88,5,5,0,0,1,2-1.95,7,7,0,0,1,6.06,0,5,5,0,0,1,2,1.95,5.65,5.65,0,0,1,.72,2.88v4.7a5.83,5.83,0,0,1-.72,2.92,5,5,0,0,1-2,2,6.4,6.4,0,0,1-3,.69A6.27,6.27,0,0,1,440.57,148.46Zm5-2.72a2.78,2.78,0,0,0,.74-2v-4.84a2.88,2.88,0,0,0-.73-2.05,2.58,2.58,0,0,0-2-.78,2.55,2.55,0,0,0-1.94.78,2.88,2.88,0,0,0-.74,2.05v4.84a2.82,2.82,0,0,0,.74,2,2.58,2.58,0,0,0,1.94.77A2.62,2.62,0,0,0,445.55,145.74Z" class="cls-3"/>
    <path d="M451.76,148.55V133.92a.33.33,0,0,1,.38-.37h2.26a.49.49,0,0,1,.44.24l5.49,9.14c0,.06.06.08.1.06s.06-.05.06-.11v-9a.32.32,0,0,1,.37-.37h2.31a.33.33,0,0,1,.37.37v14.63a.34.34,0,0,1-.37.38h-2.25a.5.5,0,0,1-.43-.27L455,139.44c0-.06-.06-.09-.1-.07s-.05,0-.05.11l0,9.07a.33.33,0,0,1-.37.38h-2.33A.34.34,0,0,1,451.76,148.55Z" class="cls-3"/>
  </g>
</svg>